<svg class="main-svg" xmlns="http://www.w3.org/2000/svg" xmlns:xlink="http://www.w3.org/1999/xlink" width="1000" height="560" style="" viewBox="0 0 1000 560"><rect x="0" y="0" width="1000" height="560" style="fill: rgb(255, 255, 255); fill-opacity: 1;"/><defs id="defs-a911a2"><g class="clips"><clipPath id="clipa911a2xyplot" class="plotclip"><rect width="900" height="390"/></clipPath><clipPath class="axesclip" id="clipa911a2x"><rect x="70" y="0" width="900" height="560"/></clipPath><clipPath class="axesclip" id="clipa911a2y"><rect x="0" y="110" width="1000" height="390"/></clipPath><clipPath class="axesclip" id="clipa911a2xy"><rect x="70" y="110" width="900" height="390"/></clipPath></g><g class="gradients"/><g class="patterns"/></defs><g class="bglayer"/><g class="layer-below"><g class="imagelayer"/><g class="shapelayer"/></g><g class="cartesianlayer"><g class="subplot xy"><g class="layer-subplot"><g class="shapelayer"/><g class="imagelayer"/></g><g class="minor-gridlayer"><g class="x"/><g class="y"/></g><g class="gridlayer"><g class="x"><path class="xgrid crisp" transform="translate(279.40999999999997,0)" d="M0,110v390" style="stroke: rgb(235, 240, 248); stroke-opacity: 1; stroke-width: 1px;"/><path class="xgrid crisp" transform="translate(440.07,0)" d="M0,110v390" style="stroke: rgb(235, 240, 248); stroke-opacity: 1; stroke-width: 1px;"/><path class="xgrid crisp" transform="translate(600.73,0)" d="M0,110v390" style="stroke: rgb(235, 240, 248); stroke-opacity: 1; stroke-width: 1px;"/><path class="xgrid crisp" transform="translate(761.39,0)" d="M0,110v390" style="stroke: rgb(235, 240, 248); stroke-opacity: 1; stroke-width: 1px;"/><path class="xgrid crisp" transform="translate(922.05,0)" d="M0,110v390" style="stroke: rgb(235, 240, 248); stroke-opacity: 1; stroke-width: 1px;"/></g><g class="y"><path class="ygrid crisp" transform="translate(0,400.94)" d="M70,0h900" style="stroke: rgb(235, 240, 248); stroke-opacity: 1; stroke-width: 1px;"/><path class="ygrid crisp" transform="translate(0,345.21000000000004)" d="M70,0h900" style="stroke: rgb(235, 240, 248); stroke-opacity: 1; stroke-width: 1px;"/><path class="ygrid crisp" transform="translate(0,289.47)" d="M70,0h900" style="stroke: rgb(235, 240, 248); stroke-opacity: 1; stroke-width: 1px;"/><path class="ygrid crisp" transform="translate(0,233.73000000000002)" d="M70,0h900" style="stroke: rgb(235, 240, 248); stroke-opacity: 1; stroke-width: 1px;"/><path class="ygrid crisp" transform="translate(0,178)" d="M70,0h900" style="stroke: rgb(235, 240, 248); stroke-opacity: 1; stroke-width: 1px;"/><path class="ygrid crisp" transform="translate(0,122.26)" d="M70,0h900" style="stroke: rgb(235, 240, 248); stroke-opacity: 1; stroke-width: 1px;"/></g></g><g class="zerolinelayer"><path class="xzl zl crisp" transform="translate(118.75,0)" d="M0,110v390" style="stroke: rgb(235, 240, 248); stroke-opacity: 1; stroke-width: 2px;"/><path class="yzl zl crisp" transform="translate(0,456.68)" d="M70,0h900" style="stroke: rgb(235, 240, 248); stroke-opacity: 1; stroke-width: 2px;"/></g><g class="layer-between"><g class="shapelayer"/><g class="imagelayer"/></g><path class="xlines-below"/><path class="ylines-below"/><g class="overlines-below"/><g class="xaxislayer-below"/><g class="yaxislayer-below"/><g class="overaxes-below"/><g class="overplot"><g class="xy" transform="translate(70,110)" clip-path="url(#clipa911a2xyplot)"><g class="scatterlayer mlayer"><g class="trace scatter tracebb1322" style="stroke-miterlimit: 2; opacity: 1;"><g class="fills"><g><path class="js-fill" d="M48.75,254.15L56.78,166.96L64.82,145.93L72.85,92.85L80.88,79.24L88.92,53.5L96.95,54.16L104.98,53.7L113.01,56.69L121.05,61.5L129.08,56.55L137.11,19.5L145.15,61.14L153.18,62.78L161.21,71.95L169.25,66.14L177.28,66.21L185.31,64.14L193.34,64.17L201.38,57.7L209.41,63.16L217.44,66.02L225.48,70.54L233.51,66.01L241.54,70.22L249.58,72.4L257.61,72.37L265.64,66.48L273.67,65.98L281.71,70.18L289.74,63.12L297.77,72.38L305.81,72.38L329.91,72.35L337.94,70.52L345.97,65.95L354.01,66.07L362.04,70.57L370.07,72.37L378.1,59.42L386.14,72.38L394.17,59.43L402.2,66.07L410.24,70.56L418.27,72.37L426.3,70.53L434.34,72.37L442.37,66.4L450.4,72.37L482.53,72.44L490.57,70.17L498.6,72.34L506.63,72.34L514.67,72.34L522.7,70.53L530.73,72.35L538.77,72.34L546.8,66.03L554.83,72.35L611.06,72.36L619.1,65.81L627.13,70.51L635.16,72.34L643.19,70.57L651.23,66.01L659.26,72.36L667.29,72.36L675.33,72.35L683.36,66.03L691.39,70.52L699.43,70.51L707.46,72.37L715.49,72.35L723.52,65.99L731.56,66.03L747.62,65.67L755.66,72.36L763.69,72.35L771.72,66.03L779.76,72.34L787.79,65.94L795.82,72.35L803.86,70.5L811.89,70.5L819.92,72.35L827.95,70.51L835.99,66.03L844.02,72.39L851.25,72.34L851.25,72.97L844.02,72.99L835.99,74.91L827.95,79.23L819.92,72.95L811.89,79.22L803.86,79.22L795.82,72.95L787.79,74.94L779.76,72.97L771.72,74.93L763.69,72.95L755.66,72.95L747.62,79.59L739.59,74.93L731.56,74.91L723.52,74.92L715.49,72.95L707.46,72.95L699.43,79.22L691.39,79.19L683.36,74.93L675.33,72.95L667.29,72.95L659.26,72.95L651.23,74.93L643.19,79.06L635.16,72.97L627.13,79.19L619.1,79.57L611.06,72.95L603.03,72.97L554.83,72.97L546.8,74.91L538.77,72.97L530.73,72.95L522.7,79.18L514.67,72.97L498.6,72.97L490.57,79.51L482.53,73.1L474.5,72.98L450.4,72.96L442.37,74.56L434.34,72.95L426.3,79.23L418.27,72.97L410.24,79.13L402.2,74.93L394.17,77.13L386.14,72.98L378.1,77.15L370.07,72.95L362.04,79.15L354.01,74.92L345.97,74.96L337.94,79.19L329.91,72.97L289.74,73.48L281.71,79.55L273.67,79.42L265.64,74.83L257.61,72.95L249.58,72.99L241.54,79.56L233.51,74.97L225.48,79.2L217.44,79.33L209.41,73.47L201.38,74.58L193.34,94.28L185.31,94.29L177.28,92.77L169.25,88.18L161.21,82.33L153.18,78.67L145.15,84.76L137.11,87.06L129.08,72.15L121.05,84.89L113.01,95.89L104.98,115.17L96.95,115.3L88.92,118.14L80.88,249.86L72.85,286.97L64.82,346.33L56.78,370.5L48.75,327.31Z" style="fill: rgb(47, 111, 219); fill-opacity: 0.18; stroke-width: 0;"/></g></g><g class="errorbars"/><g class="lines"><path class="js-line" d="M48.75,254.15L56.78,166.96L64.82,145.93L72.85,92.85L80.88,79.24L88.92,53.5L96.95,54.16L104.98,53.7L113.01,56.69L121.05,61.5L129.08,56.55L137.11,19.5L145.15,61.14L153.18,62.78L161.21,71.95L169.25,66.14L177.28,66.21L185.31,64.14L193.34,64.17L201.38,57.7L209.41,63.16L217.44,66.02L225.48,70.54L233.51,66.01L241.54,70.22L249.58,72.4L257.61,72.37L265.64,66.48L273.67,65.98L281.71,70.18L289.74,63.12L297.77,72.38L305.81,72.38L329.91,72.35L337.94,70.52L345.97,65.95L354.01,66.07L362.04,70.57L370.07,72.37L378.1,59.42L386.14,72.38L394.17,59.43L402.2,66.07L410.24,70.56L418.27,72.37L426.3,70.53L434.34,72.37L442.37,66.4L450.4,72.37L482.53,72.44L490.57,70.17L498.6,72.34L506.63,72.34L514.67,72.34L522.7,70.53L530.73,72.35L538.77,72.34L546.8,66.03L554.83,72.35L611.06,72.36L619.1,65.81L627.13,70.51L635.16,72.34L643.19,70.57L651.23,66.01L659.26,72.36L667.29,72.36L675.33,72.35L683.36,66.03L691.39,70.52L699.43,70.51L707.46,72.37L715.49,72.35L723.52,65.99L731.56,66.03L747.62,65.67L755.66,72.36L763.69,72.35L771.72,66.03L779.76,72.34L787.79,65.94L795.82,72.35L803.86,70.5L811.89,70.5L819.92,72.35L827.95,70.51L835.99,66.03L844.02,72.39L851.25,72.34L851.25,72.97L844.02,72.99L835.99,74.91L827.95,79.23L819.92,72.95L811.89,79.22L803.86,79.22L795.82,72.95L787.79,74.94L779.76,72.97L771.72,74.93L763.69,72.95L755.66,72.95L747.62,79.59L739.59,74.93L731.56,74.91L723.52,74.92L715.49,72.95L707.46,72.95L699.43,79.22L691.39,79.19L683.36,74.93L675.33,72.95L667.29,72.95L659.26,72.95L651.23,74.93L643.19,79.06L635.16,72.97L627.13,79.19L619.1,79.57L611.06,72.95L603.03,72.97L554.83,72.97L546.8,74.91L538.77,72.97L530.73,72.95L522.7,79.18L514.67,72.97L498.6,72.97L490.57,79.51L482.53,73.1L474.5,72.98L450.4,72.96L442.37,74.56L434.34,72.95L426.3,79.23L418.27,72.97L410.24,79.13L402.2,74.93L394.17,77.13L386.14,72.98L378.1,77.15L370.07,72.95L362.04,79.15L354.01,74.92L345.97,74.96L337.94,79.19L329.91,72.97L289.74,73.48L281.71,79.55L273.67,79.42L265.64,74.83L257.61,72.95L249.58,72.99L241.54,79.56L233.51,74.97L225.48,79.2L217.44,79.33L209.41,73.47L201.38,74.58L193.34,94.28L185.31,94.29L177.28,92.77L169.25,88.18L161.21,82.33L153.18,78.67L145.15,84.76L137.11,87.06L129.08,72.15L121.05,84.89L113.01,95.89L104.98,115.17L96.95,115.3L88.92,118.14L80.88,249.86L72.85,286.97L64.82,346.33L56.78,370.5L48.75,327.31" style="vector-effect: none; fill: none; stroke: rgb(99, 110, 250); stroke-opacity: 1; stroke-width: 0px; opacity: 1;"/></g><g class="points"/><g class="text"/></g><g class="trace scatter traced60c56" style="stroke-miterlimit: 2; opacity: 1;"><g class="fills"/><g class="errorbars"/><g class="lines"><path class="js-line" d="M48.75,290.73L64.82,246.13L72.85,189.91L80.88,164.55L88.92,85.82L96.95,84.73L104.98,84.43L113.01,76.29L121.05,73.19L129.08,64.35L137.11,53.28L145.15,72.95L153.18,70.73L161.21,77.14L169.25,77.16L177.28,79.49L185.31,79.21L193.34,79.23L201.38,66.14L209.41,68.32L217.44,72.68L225.48,74.87L233.51,70.49L241.54,74.89L249.58,72.69L257.61,72.66L265.64,70.65L281.71,74.86L289.74,68.3L297.77,72.68L305.81,72.68L329.91,72.66L337.94,74.86L345.97,70.46L354.01,70.49L362.04,74.86L370.07,72.66L378.1,68.28L386.14,72.68L394.17,68.28L402.2,70.5L410.24,74.84L418.27,72.67L426.3,74.88L434.34,72.66L442.37,70.48L450.4,72.67L482.53,72.77L490.57,74.84L498.6,72.65L506.63,72.65L514.67,72.65L522.7,74.86L530.73,72.65L538.77,72.65L546.8,70.47L554.83,72.66L619.1,72.69L627.13,74.85L635.16,72.65L643.19,74.82L651.23,70.47L659.26,72.65L675.33,72.65L683.36,70.48L691.39,74.86L699.43,74.87L707.46,72.66L715.49,72.65L723.52,70.46L731.56,70.47L739.59,70.45L747.62,72.63L763.69,72.65L771.72,70.48L779.76,72.65L787.79,70.44L803.86,74.86L811.89,74.86L819.92,72.65L827.95,74.87L835.99,70.47L844.02,72.69L851.25,72.65" style="vector-effect: none; fill: none; stroke: rgb(47, 111, 219); stroke-opacity: 1; stroke-width: 2.5px; opacity: 1;"/></g><g class="points"><path class="point plotly-customdata" transform="translate(48.75,290.73)" d="M3,0A3,3 0 1,1 0,-3A3,3 0 0,1 3,0Z" style="opacity: 1; stroke-width: 0px; fill: rgb(47, 111, 219); fill-opacity: 1;"/><path class="point plotly-customdata" transform="translate(56.78,268.73)" d="M3,0A3,3 0 1,1 0,-3A3,3 0 0,1 3,0Z" style="opacity: 1; stroke-width: 0px; fill: rgb(47, 111, 219); fill-opacity: 1;"/><path class="point plotly-customdata" transform="translate(64.82,246.13)" d="M3,0A3,3 0 1,1 0,-3A3,3 0 0,1 3,0Z" style="opacity: 1; stroke-width: 0px; fill: rgb(47, 111, 219); fill-opacity: 1;"/><path class="point plotly-customdata" transform="translate(72.85,189.91)" d="M3,0A3,3 0 1,1 0,-3A3,3 0 0,1 3,0Z" style="opacity: 1; stroke-width: 0px; fill: rgb(47, 111, 219); fill-opacity: 1;"/><path class="point plotly-customdata" transform="translate(80.88,164.55)" d="M3,0A3,3 0 1,1 0,-3A3,3 0 0,1 3,0Z" style="opacity: 1; stroke-width: 0px; fill: rgb(47, 111, 219); fill-opacity: 1;"/><path class="point plotly-customdata" transform="translate(88.92,85.82)" d="M3,0A3,3 0 1,1 0,-3A3,3 0 0,1 3,0Z" style="opacity: 1; stroke-width: 0px; fill: rgb(47, 111, 219); fill-opacity: 1;"/><path class="point plotly-customdata" transform="translate(96.95,84.73)" d="M3,0A3,3 0 1,1 0,-3A3,3 0 0,1 3,0Z" style="opacity: 1; stroke-width: 0px; fill: rgb(47, 111, 219); fill-opacity: 1;"/><path class="point plotly-customdata" transform="translate(104.98,84.43)" d="M3,0A3,3 0 1,1 0,-3A3,3 0 0,1 3,0Z" style="opacity: 1; stroke-width: 0px; fill: rgb(47, 111, 219); fill-opacity: 1;"/><path class="point plotly-customdata" transform="translate(113.01,76.29)" d="M3,0A3,3 0 1,1 0,-3A3,3 0 0,1 3,0Z" style="opacity: 1; stroke-width: 0px; fill: rgb(47, 111, 219); fill-opacity: 1;"/><path class="point plotly-customdata" transform="translate(121.05,73.19)" d="M3,0A3,3 0 1,1 0,-3A3,3 0 0,1 3,0Z" style="opacity: 1; stroke-width: 0px; fill: rgb(47, 111, 219); fill-opacity: 1;"/><path class="point plotly-customdata" transform="translate(129.08,64.35)" d="M3,0A3,3 0 1,1 0,-3A3,3 0 0,1 3,0Z" style="opacity: 1; stroke-width: 0px; fill: rgb(47, 111, 219); fill-opacity: 1;"/><path class="point plotly-customdata" transform="translate(137.11,53.28)" d="M3,0A3,3 0 1,1 0,-3A3,3 0 0,1 3,0Z" style="opacity: 1; stroke-width: 0px; fill: rgb(47, 111, 219); fill-opacity: 1;"/><path class="point plotly-customdata" transform="translate(145.15,72.95)" d="M3,0A3,3 0 1,1 0,-3A3,3 0 0,1 3,0Z" style="opacity: 1; stroke-width: 0px; fill: rgb(47, 111, 219); fill-opacity: 1;"/><path class="point plotly-customdata" transform="translate(153.18,70.73)" d="M3,0A3,3 0 1,1 0,-3A3,3 0 0,1 3,0Z" style="opacity: 1; stroke-width: 0px; fill: rgb(47, 111, 219); fill-opacity: 1;"/><path class="point plotly-customdata" transform="translate(161.21,77.14)" d="M3,0A3,3 0 1,1 0,-3A3,3 0 0,1 3,0Z" style="opacity: 1; stroke-width: 0px; fill: rgb(47, 111, 219); fill-opacity: 1;"/><path class="point plotly-customdata" transform="translate(169.25,77.16)" d="M3,0A3,3 0 1,1 0,-3A3,3 0 0,1 3,0Z" style="opacity: 1; stroke-width: 0px; fill: rgb(47, 111, 219); fill-opacity: 1;"/><path class="point plotly-customdata" transform="translate(177.28,79.49)" d="M3,0A3,3 0 1,1 0,-3A3,3 0 0,1 3,0Z" style="opacity: 1; stroke-width: 0px; fill: rgb(47, 111, 219); fill-opacity: 1;"/><path class="point plotly-customdata" transform="translate(185.31,79.21)" d="M3,0A3,3 0 1,1 0,-3A3,3 0 0,1 3,0Z" style="opacity: 1; stroke-width: 0px; fill: rgb(47, 111, 219); fill-opacity: 1;"/><path class="point plotly-customdata" transform="translate(193.34,79.23)" d="M3,0A3,3 0 1,1 0,-3A3,3 0 0,1 3,0Z" style="opacity: 1; stroke-width: 0px; fill: rgb(47, 111, 219); fill-opacity: 1;"/><path class="point plotly-customdata" transform="translate(201.38,66.14)" d="M3,0A3,3 0 1,1 0,-3A3,3 0 0,1 3,0Z" style="opacity: 1; stroke-width: 0px; fill: rgb(47, 111, 219); fill-opacity: 1;"/><path class="point plotly-customdata" transform="translate(209.41,68.32)" d="M3,0A3,3 0 1,1 0,-3A3,3 0 0,1 3,0Z" style="opacity: 1; stroke-width: 0px; fill: rgb(47, 111, 219); fill-opacity: 1;"/><path class="point plotly-customdata" transform="translate(217.44,72.68)" d="M3,0A3,3 0 1,1 0,-3A3,3 0 0,1 3,0Z" style="opacity: 1; stroke-width: 0px; fill: rgb(47, 111, 219); fill-opacity: 1;"/><path class="point plotly-customdata" transform="translate(225.48,74.87)" d="M3,0A3,3 0 1,1 0,-3A3,3 0 0,1 3,0Z" style="opacity: 1; stroke-width: 0px; fill: rgb(47, 111, 219); fill-opacity: 1;"/><path class="point plotly-customdata" transform="translate(233.51,70.49)" d="M3,0A3,3 0 1,1 0,-3A3,3 0 0,1 3,0Z" style="opacity: 1; stroke-width: 0px; fill: rgb(47, 111, 219); fill-opacity: 1;"/><path class="point plotly-customdata" transform="translate(241.54,74.89)" d="M3,0A3,3 0 1,1 0,-3A3,3 0 0,1 3,0Z" style="opacity: 1; stroke-width: 0px; fill: rgb(47, 111, 219); fill-opacity: 1;"/><path class="point plotly-customdata" transform="translate(249.58,72.69)" d="M3,0A3,3 0 1,1 0,-3A3,3 0 0,1 3,0Z" style="opacity: 1; stroke-width: 0px; fill: rgb(47, 111, 219); fill-opacity: 1;"/><path class="point plotly-customdata" transform="translate(257.61,72.66)" d="M3,0A3,3 0 1,1 0,-3A3,3 0 0,1 3,0Z" style="opacity: 1; stroke-width: 0px; fill: rgb(47, 111, 219); fill-opacity: 1;"/><path class="point plotly-customdata" transform="translate(265.64,70.65)" d="M3,0A3,3 0 1,1 0,-3A3,3 0 0,1 3,0Z" style="opacity: 1; stroke-width: 0px; fill: rgb(47, 111, 219); fill-opacity: 1;"/><path class="point plotly-customdata" transform="translate(273.67,72.7)" d="M3,0A3,3 0 1,1 0,-3A3,3 0 0,1 3,0Z" style="opacity: 1; stroke-width: 0px; fill: rgb(47, 111, 219); fill-opacity: 1;"/><path class="point plotly-customdata" transform="translate(281.71,74.86)" d="M3,0A3,3 0 1,1 0,-3A3,3 0 0,1 3,0Z" style="opacity: 1; stroke-width: 0px; fill: rgb(47, 111, 219); fill-opacity: 1;"/><path class="point plotly-customdata" transform="translate(289.74,68.3)" d="M3,0A3,3 0 1,1 0,-3A3,3 0 0,1 3,0Z" style="opacity: 1; stroke-width: 0px; fill: rgb(47, 111, 219); fill-opacity: 1;"/><path class="point plotly-customdata" transform="translate(297.77,72.68)" d="M3,0A3,3 0 1,1 0,-3A3,3 0 0,1 3,0Z" style="opacity: 1; stroke-width: 0px; fill: rgb(47, 111, 219); fill-opacity: 1;"/><path class="point plotly-customdata" transform="translate(305.81,72.68)" d="M3,0A3,3 0 1,1 0,-3A3,3 0 0,1 3,0Z" style="opacity: 1; stroke-width: 0px; fill: rgb(47, 111, 219); fill-opacity: 1;"/><path class="point plotly-customdata" transform="translate(313.84,72.79)" d="M3,0A3,3 0 1,1 0,-3A3,3 0 0,1 3,0Z" style="opacity: 1; stroke-width: 0px; fill: rgb(47, 111, 219); fill-opacity: 1;"/><path class="point plotly-customdata" transform="translate(321.87,72.67)" d="M3,0A3,3 0 1,1 0,-3A3,3 0 0,1 3,0Z" style="opacity: 1; stroke-width: 0px; fill: rgb(47, 111, 219); fill-opacity: 1;"/><path class="point plotly-customdata" transform="translate(329.91,72.66)" d="M3,0A3,3 0 1,1 0,-3A3,3 0 0,1 3,0Z" style="opacity: 1; stroke-width: 0px; fill: rgb(47, 111, 219); fill-opacity: 1;"/><path class="point plotly-customdata" transform="translate(337.94,74.86)" d="M3,0A3,3 0 1,1 0,-3A3,3 0 0,1 3,0Z" style="opacity: 1; stroke-width: 0px; fill: rgb(47, 111, 219); fill-opacity: 1;"/><path class="point plotly-customdata" transform="translate(345.97,70.46)" d="M3,0A3,3 0 1,1 0,-3A3,3 0 0,1 3,0Z" style="opacity: 1; stroke-width: 0px; fill: rgb(47, 111, 219); fill-opacity: 1;"/><path class="point plotly-customdata" transform="translate(354.01,70.49)" d="M3,0A3,3 0 1,1 0,-3A3,3 0 0,1 3,0Z" style="opacity: 1; stroke-width: 0px; fill: rgb(47, 111, 219); fill-opacity: 1;"/><path class="point plotly-customdata" transform="translate(362.04,74.86)" d="M3,0A3,3 0 1,1 0,-3A3,3 0 0,1 3,0Z" style="opacity: 1; stroke-width: 0px; fill: rgb(47, 111, 219); fill-opacity: 1;"/><path class="point plotly-customdata" transform="translate(370.07,72.66)" d="M3,0A3,3 0 1,1 0,-3A3,3 0 0,1 3,0Z" style="opacity: 1; stroke-width: 0px; fill: rgb(47, 111, 219); fill-opacity: 1;"/><path class="point plotly-customdata" transform="translate(378.1,68.28)" d="M3,0A3,3 0 1,1 0,-3A3,3 0 0,1 3,0Z" style="opacity: 1; stroke-width: 0px; fill: rgb(47, 111, 219); fill-opacity: 1;"/><path class="point plotly-customdata" transform="translate(386.14,72.68)" d="M3,0A3,3 0 1,1 0,-3A3,3 0 0,1 3,0Z" style="opacity: 1; stroke-width: 0px; fill: rgb(47, 111, 219); fill-opacity: 1;"/><path class="point plotly-customdata" transform="translate(394.17,68.28)" d="M3,0A3,3 0 1,1 0,-3A3,3 0 0,1 3,0Z" style="opacity: 1; stroke-width: 0px; fill: rgb(47, 111, 219); fill-opacity: 1;"/><path class="point plotly-customdata" transform="translate(402.2,70.5)" d="M3,0A3,3 0 1,1 0,-3A3,3 0 0,1 3,0Z" style="opacity: 1; stroke-width: 0px; fill: rgb(47, 111, 219); fill-opacity: 1;"/><path class="point plotly-customdata" transform="translate(410.24,74.84)" d="M3,0A3,3 0 1,1 0,-3A3,3 0 0,1 3,0Z" style="opacity: 1; stroke-width: 0px; fill: rgb(47, 111, 219); fill-opacity: 1;"/><path class="point plotly-customdata" transform="translate(418.27,72.67)" d="M3,0A3,3 0 1,1 0,-3A3,3 0 0,1 3,0Z" style="opacity: 1; stroke-width: 0px; fill: rgb(47, 111, 219); fill-opacity: 1;"/><path class="point plotly-customdata" transform="translate(426.3,74.88)" d="M3,0A3,3 0 1,1 0,-3A3,3 0 0,1 3,0Z" style="opacity: 1; stroke-width: 0px; fill: rgb(47, 111, 219); fill-opacity: 1;"/><path class="point plotly-customdata" transform="translate(434.34,72.66)" d="M3,0A3,3 0 1,1 0,-3A3,3 0 0,1 3,0Z" style="opacity: 1; stroke-width: 0px; fill: rgb(47, 111, 219); fill-opacity: 1;"/><path class="point plotly-customdata" transform="translate(442.37,70.48)" d="M3,0A3,3 0 1,1 0,-3A3,3 0 0,1 3,0Z" style="opacity: 1; stroke-width: 0px; fill: rgb(47, 111, 219); fill-opacity: 1;"/><path class="point plotly-customdata" transform="translate(450.4,72.67)" d="M3,0A3,3 0 1,1 0,-3A3,3 0 0,1 3,0Z" style="opacity: 1; stroke-width: 0px; fill: rgb(47, 111, 219); fill-opacity: 1;"/><path class="point plotly-customdata" transform="translate(458.43,72.79)" d="M3,0A3,3 0 1,1 0,-3A3,3 0 0,1 3,0Z" style="opacity: 1; stroke-width: 0px; fill: rgb(47, 111, 219); fill-opacity: 1;"/><path class="point plotly-customdata" transform="translate(466.47,72.66)" d="M3,0A3,3 0 1,1 0,-3A3,3 0 0,1 3,0Z" style="opacity: 1; stroke-width: 0px; fill: rgb(47, 111, 219); fill-opacity: 1;"/><path class="point plotly-customdata" transform="translate(474.5,72.68)" d="M3,0A3,3 0 1,1 0,-3A3,3 0 0,1 3,0Z" style="opacity: 1; stroke-width: 0px; fill: rgb(47, 111, 219); fill-opacity: 1;"/><path class="point plotly-customdata" transform="translate(482.53,72.77)" d="M3,0A3,3 0 1,1 0,-3A3,3 0 0,1 3,0Z" style="opacity: 1; stroke-width: 0px; fill: rgb(47, 111, 219); fill-opacity: 1;"/><path class="point plotly-customdata" transform="translate(490.57,74.84)" d="M3,0A3,3 0 1,1 0,-3A3,3 0 0,1 3,0Z" style="opacity: 1; stroke-width: 0px; fill: rgb(47, 111, 219); fill-opacity: 1;"/><path class="point plotly-customdata" transform="translate(498.6,72.65)" d="M3,0A3,3 0 1,1 0,-3A3,3 0 0,1 3,0Z" style="opacity: 1; stroke-width: 0px; fill: rgb(47, 111, 219); fill-opacity: 1;"/><path class="point plotly-customdata" transform="translate(506.63,72.65)" d="M3,0A3,3 0 1,1 0,-3A3,3 0 0,1 3,0Z" style="opacity: 1; stroke-width: 0px; fill: rgb(47, 111, 219); fill-opacity: 1;"/><path class="point plotly-customdata" transform="translate(514.67,72.65)" d="M3,0A3,3 0 1,1 0,-3A3,3 0 0,1 3,0Z" style="opacity: 1; stroke-width: 0px; fill: rgb(47, 111, 219); fill-opacity: 1;"/><path class="point plotly-customdata" transform="translate(522.7,74.86)" d="M3,0A3,3 0 1,1 0,-3A3,3 0 0,1 3,0Z" style="opacity: 1; stroke-width: 0px; fill: rgb(47, 111, 219); fill-opacity: 1;"/><path class="point plotly-customdata" transform="translate(530.73,72.65)" d="M3,0A3,3 0 1,1 0,-3A3,3 0 0,1 3,0Z" style="opacity: 1; stroke-width: 0px; fill: rgb(47, 111, 219); fill-opacity: 1;"/><path class="point plotly-customdata" transform="translate(538.77,72.65)" d="M3,0A3,3 0 1,1 0,-3A3,3 0 0,1 3,0Z" style="opacity: 1; stroke-width: 0px; fill: rgb(47, 111, 219); fill-opacity: 1;"/><path class="point plotly-customdata" transform="translate(546.8,70.47)" d="M3,0A3,3 0 1,1 0,-3A3,3 0 0,1 3,0Z" style="opacity: 1; stroke-width: 0px; fill: rgb(47, 111, 219); fill-opacity: 1;"/><path class="point plotly-customdata" transform="translate(554.83,72.66)" d="M3,0A3,3 0 1,1 0,-3A3,3 0 0,1 3,0Z" style="opacity: 1; stroke-width: 0px; fill: rgb(47, 111, 219); fill-opacity: 1;"/><path class="point plotly-customdata" transform="translate(562.86,72.66)" d="M3,0A3,3 0 1,1 0,-3A3,3 0 0,1 3,0Z" style="opacity: 1; stroke-width: 0px; fill: rgb(47, 111, 219); fill-opacity: 1;"/><path class="point plotly-customdata" transform="translate(570.9,72.67)" d="M3,0A3,3 0 1,1 0,-3A3,3 0 0,1 3,0Z" style="opacity: 1; stroke-width: 0px; fill: rgb(47, 111, 219); fill-opacity: 1;"/><path class="point plotly-customdata" transform="translate(578.93,72.65)" d="M3,0A3,3 0 1,1 0,-3A3,3 0 0,1 3,0Z" style="opacity: 1; stroke-width: 0px; fill: rgb(47, 111, 219); fill-opacity: 1;"/><path class="point plotly-customdata" transform="translate(586.96,72.65)" d="M3,0A3,3 0 1,1 0,-3A3,3 0 0,1 3,0Z" style="opacity: 1; stroke-width: 0px; fill: rgb(47, 111, 219); fill-opacity: 1;"/><path class="point plotly-customdata" transform="translate(595,72.66)" d="M3,0A3,3 0 1,1 0,-3A3,3 0 0,1 3,0Z" style="opacity: 1; stroke-width: 0px; fill: rgb(47, 111, 219); fill-opacity: 1;"/><path class="point plotly-customdata" transform="translate(603.03,72.65)" d="M3,0A3,3 0 1,1 0,-3A3,3 0 0,1 3,0Z" style="opacity: 1; stroke-width: 0px; fill: rgb(47, 111, 219); fill-opacity: 1;"/><path class="point plotly-customdata" transform="translate(611.06,72.65)" d="M3,0A3,3 0 1,1 0,-3A3,3 0 0,1 3,0Z" style="opacity: 1; stroke-width: 0px; fill: rgb(47, 111, 219); fill-opacity: 1;"/><path class="point plotly-customdata" transform="translate(619.1,72.69)" d="M3,0A3,3 0 1,1 0,-3A3,3 0 0,1 3,0Z" style="opacity: 1; stroke-width: 0px; fill: rgb(47, 111, 219); fill-opacity: 1;"/><path class="point plotly-customdata" transform="translate(627.13,74.85)" d="M3,0A3,3 0 1,1 0,-3A3,3 0 0,1 3,0Z" style="opacity: 1; stroke-width: 0px; fill: rgb(47, 111, 219); fill-opacity: 1;"/><path class="point plotly-customdata" transform="translate(635.16,72.65)" d="M3,0A3,3 0 1,1 0,-3A3,3 0 0,1 3,0Z" style="opacity: 1; stroke-width: 0px; fill: rgb(47, 111, 219); fill-opacity: 1;"/><path class="point plotly-customdata" transform="translate(643.19,74.82)" d="M3,0A3,3 0 1,1 0,-3A3,3 0 0,1 3,0Z" style="opacity: 1; stroke-width: 0px; fill: rgb(47, 111, 219); fill-opacity: 1;"/><path class="point plotly-customdata" transform="translate(651.23,70.47)" d="M3,0A3,3 0 1,1 0,-3A3,3 0 0,1 3,0Z" style="opacity: 1; stroke-width: 0px; fill: rgb(47, 111, 219); fill-opacity: 1;"/><path class="point plotly-customdata" transform="translate(659.26,72.65)" d="M3,0A3,3 0 1,1 0,-3A3,3 0 0,1 3,0Z" style="opacity: 1; stroke-width: 0px; fill: rgb(47, 111, 219); fill-opacity: 1;"/><path class="point plotly-customdata" transform="translate(667.29,72.65)" d="M3,0A3,3 0 1,1 0,-3A3,3 0 0,1 3,0Z" style="opacity: 1; stroke-width: 0px; fill: rgb(47, 111, 219); fill-opacity: 1;"/><path class="point plotly-customdata" transform="translate(675.33,72.65)" d="M3,0A3,3 0 1,1 0,-3A3,3 0 0,1 3,0Z" style="opacity: 1; stroke-width: 0px; fill: rgb(47, 111, 219); fill-opacity: 1;"/><path class="point plotly-customdata" transform="translate(683.36,70.48)" d="M3,0A3,3 0 1,1 0,-3A3,3 0 0,1 3,0Z" style="opacity: 1; stroke-width: 0px; fill: rgb(47, 111, 219); fill-opacity: 1;"/><path class="point plotly-customdata" transform="translate(691.39,74.86)" d="M3,0A3,3 0 1,1 0,-3A3,3 0 0,1 3,0Z" style="opacity: 1; stroke-width: 0px; fill: rgb(47, 111, 219); fill-opacity: 1;"/><path class="point plotly-customdata" transform="translate(699.43,74.87)" d="M3,0A3,3 0 1,1 0,-3A3,3 0 0,1 3,0Z" style="opacity: 1; stroke-width: 0px; fill: rgb(47, 111, 219); fill-opacity: 1;"/><path class="point plotly-customdata" transform="translate(707.46,72.66)" d="M3,0A3,3 0 1,1 0,-3A3,3 0 0,1 3,0Z" style="opacity: 1; stroke-width: 0px; fill: rgb(47, 111, 219); fill-opacity: 1;"/><path class="point plotly-customdata" transform="translate(715.49,72.65)" d="M3,0A3,3 0 1,1 0,-3A3,3 0 0,1 3,0Z" style="opacity: 1; stroke-width: 0px; fill: rgb(47, 111, 219); fill-opacity: 1;"/><path class="point plotly-customdata" transform="translate(723.52,70.46)" d="M3,0A3,3 0 1,1 0,-3A3,3 0 0,1 3,0Z" style="opacity: 1; stroke-width: 0px; fill: rgb(47, 111, 219); fill-opacity: 1;"/><path class="point plotly-customdata" transform="translate(731.56,70.47)" d="M3,0A3,3 0 1,1 0,-3A3,3 0 0,1 3,0Z" style="opacity: 1; stroke-width: 0px; fill: rgb(47, 111, 219); fill-opacity: 1;"/><path class="point plotly-customdata" transform="translate(739.59,70.45)" d="M3,0A3,3 0 1,1 0,-3A3,3 0 0,1 3,0Z" style="opacity: 1; stroke-width: 0px; fill: rgb(47, 111, 219); fill-opacity: 1;"/><path class="point plotly-customdata" transform="translate(747.62,72.63)" d="M3,0A3,3 0 1,1 0,-3A3,3 0 0,1 3,0Z" style="opacity: 1; stroke-width: 0px; fill: rgb(47, 111, 219); fill-opacity: 1;"/><path class="point plotly-customdata" transform="translate(755.66,72.65)" d="M3,0A3,3 0 1,1 0,-3A3,3 0 0,1 3,0Z" style="opacity: 1; stroke-width: 0px; fill: rgb(47, 111, 219); fill-opacity: 1;"/><path class="point plotly-customdata" transform="translate(763.69,72.65)" d="M3,0A3,3 0 1,1 0,-3A3,3 0 0,1 3,0Z" style="opacity: 1; stroke-width: 0px; fill: rgb(47, 111, 219); fill-opacity: 1;"/><path class="point plotly-customdata" transform="translate(771.72,70.48)" d="M3,0A3,3 0 1,1 0,-3A3,3 0 0,1 3,0Z" style="opacity: 1; stroke-width: 0px; fill: rgb(47, 111, 219); fill-opacity: 1;"/><path class="point plotly-customdata" transform="translate(779.76,72.65)" d="M3,0A3,3 0 1,1 0,-3A3,3 0 0,1 3,0Z" style="opacity: 1; stroke-width: 0px; fill: rgb(47, 111, 219); fill-opacity: 1;"/><path class="point plotly-customdata" transform="translate(787.79,70.44)" d="M3,0A3,3 0 1,1 0,-3A3,3 0 0,1 3,0Z" style="opacity: 1; stroke-width: 0px; fill: rgb(47, 111, 219); fill-opacity: 1;"/><path class="point plotly-customdata" transform="translate(795.82,72.65)" d="M3,0A3,3 0 1,1 0,-3A3,3 0 0,1 3,0Z" style="opacity: 1; stroke-width: 0px; fill: rgb(47, 111, 219); fill-opacity: 1;"/><path class="point plotly-customdata" transform="translate(803.86,74.86)" d="M3,0A3,3 0 1,1 0,-3A3,3 0 0,1 3,0Z" style="opacity: 1; stroke-width: 0px; fill: rgb(47, 111, 219); fill-opacity: 1;"/><path class="point plotly-customdata" transform="translate(811.89,74.86)" d="M3,0A3,3 0 1,1 0,-3A3,3 0 0,1 3,0Z" style="opacity: 1; stroke-width: 0px; fill: rgb(47, 111, 219); fill-opacity: 1;"/><path class="point plotly-customdata" transform="translate(819.92,72.65)" d="M3,0A3,3 0 1,1 0,-3A3,3 0 0,1 3,0Z" style="opacity: 1; stroke-width: 0px; fill: rgb(47, 111, 219); fill-opacity: 1;"/><path class="point plotly-customdata" transform="translate(827.95,74.87)" d="M3,0A3,3 0 1,1 0,-3A3,3 0 0,1 3,0Z" style="opacity: 1; stroke-width: 0px; fill: rgb(47, 111, 219); fill-opacity: 1;"/><path class="point plotly-customdata" transform="translate(835.99,70.47)" d="M3,0A3,3 0 1,1 0,-3A3,3 0 0,1 3,0Z" style="opacity: 1; stroke-width: 0px; fill: rgb(47, 111, 219); fill-opacity: 1;"/><path class="point plotly-customdata" transform="translate(844.02,72.69)" d="M3,0A3,3 0 1,1 0,-3A3,3 0 0,1 3,0Z" style="opacity: 1; stroke-width: 0px; fill: rgb(47, 111, 219); fill-opacity: 1;"/><path class="point plotly-customdata" transform="translate(851.25,72.65)" d="M3,0A3,3 0 1,1 0,-3A3,3 0 0,1 3,0Z" style="opacity: 1; stroke-width: 0px; fill: rgb(47, 111, 219); fill-opacity: 1;"/></g><g class="text"/></g></g></g></g><g class="zerolinelayer-above"/><path class="xlines-above crisp" d="M0,0" style="fill: none;"/><path class="ylines-above crisp" d="M0,0" style="fill: none;"/><g class="overlines-above"/><g class="xaxislayer-above"><g class="xtick"><text text-anchor="middle" x="0" y="513" transform="translate(118.75,0)" style="font-family: 'Open Sans', verdana, arial, sans-serif; font-size: 12px; fill: rgb(42, 63, 95); fill-opacity: 1; white-space: pre;">0</text></g><g class="xtick"><text text-anchor="middle" x="0" y="513" style="font-family: 'Open Sans', verdana, arial, sans-serif; font-size: 12px; fill: rgb(42, 63, 95); fill-opacity: 1; white-space: pre;" transform="translate(279.40999999999997,0)">200</text></g><g class="xtick"><text text-anchor="middle" x="0" y="513" style="font-family: 'Open Sans', verdana, arial, sans-serif; font-size: 12px; fill: rgb(42, 63, 95); fill-opacity: 1; white-space: pre;" transform="translate(440.07,0)">400</text></g><g class="xtick"><text text-anchor="middle" x="0" y="513" style="font-family: 'Open Sans', verdana, arial, sans-serif; font-size: 12px; fill: rgb(42, 63, 95); fill-opacity: 1; white-space: pre;" transform="translate(600.73,0)">600</text></g><g class="xtick"><text text-anchor="middle" x="0" y="513" style="font-family: 'Open Sans', verdana, arial, sans-serif; font-size: 12px; fill: rgb(42, 63, 95); fill-opacity: 1; white-space: pre;" transform="translate(761.39,0)">800</text></g><g class="xtick"><text text-anchor="middle" x="0" y="513" style="font-family: 'Open Sans', verdana, arial, sans-serif; font-size: 12px; fill: rgb(42, 63, 95); fill-opacity: 1; white-space: pre;" transform="translate(922.05,0)">1000</text></g></g><g class="yaxislayer-above"><g class="ytick"><text text-anchor="end" x="69" y="4.199999999999999" transform="translate(0,456.68)" style="font-family: 'Open Sans', verdana, arial, sans-serif; font-size: 12px; fill: rgb(42, 63, 95); fill-opacity: 1; white-space: pre;">0</text></g><g class="ytick"><text text-anchor="end" x="69" y="4.199999999999999" style="font-family: 'Open Sans', verdana, arial, sans-serif; font-size: 12px; fill: rgb(42, 63, 95); fill-opacity: 1; white-space: pre;" transform="translate(0,400.94)">0.1</text></g><g class="ytick"><text text-anchor="end" x="69" y="4.199999999999999" style="font-family: 'Open Sans', verdana, arial, sans-serif; font-size: 12px; fill: rgb(42, 63, 95); fill-opacity: 1; white-space: pre;" transform="translate(0,345.21000000000004)">0.2</text></g><g class="ytick"><text text-anchor="end" x="69" y="4.199999999999999" style="font-family: 'Open Sans', verdana, arial, sans-serif; font-size: 12px; fill: rgb(42, 63, 95); fill-opacity: 1; white-space: pre;" transform="translate(0,289.47)">0.3</text></g><g class="ytick"><text text-anchor="end" x="69" y="4.199999999999999" style="font-family: 'Open Sans', verdana, arial, sans-serif; font-size: 12px; fill: rgb(42, 63, 95); fill-opacity: 1; white-space: pre;" transform="translate(0,233.73000000000002)">0.4</text></g><g class="ytick"><text text-anchor="end" x="69" y="4.199999999999999" style="font-family: 'Open Sans', verdana, arial, sans-serif; font-size: 12px; fill: rgb(42, 63, 95); fill-opacity: 1; white-space: pre;" transform="translate(0,178)">0.5</text></g><g class="ytick"><text text-anchor="end" x="69" y="4.199999999999999" style="font-family: 'Open Sans', verdana, arial, sans-serif; font-size: 12px; fill: rgb(42, 63, 95); fill-opacity: 1; white-space: pre;" transform="translate(0,122.26)">0.6</text></g></g><g class="overaxes-above"/></g></g><g class="polarlayer"/><g class="smithlayer"/><g class="ternarylayer"/><g class="geolayer"/><g class="funnelarealayer"/><g class="pielayer"/><g class="iciclelayer"/><g class="treemaplayer"/><g class="sunburstlayer"/><g class="glimages"/><defs id="topdefs-a911a2"><g class="clips"/><clipPath id="legenda911a2"><rect width="698" height="29" x="0" y="0"/></clipPath></defs><g class="layer-above"><g class="imagelayer"/><g class="shapelayer"/></g><g class="infolayer"><g class="legend" pointer-events="all" transform="translate(70,81)"><rect class="bg" shape-rendering="crispEdges" style="stroke: rgb(68, 68, 68); stroke-opacity: 1; fill: rgb(255, 255, 255); fill-opacity: 1; stroke-width: 0px;" width="698" height="29" x="0" y="0"/><g class="scrollbox" transform="" clip-path="url(#legenda911a2)"><g class="groups"><g class="traces" transform="translate(0,14.5)" style="opacity: 1;"><text class="legendtext" text-anchor="start" x="40" y="4.680000000000001" style="font-family: 'Open Sans', verdana, arial, sans-serif; font-size: 12px; fill: rgb(42, 63, 95); fill-opacity: 1; white-space: pre;">+- 1 std</text><g class="layers" style="opacity: 1;"><g class="legendfill"><path class="js-fill" d="M5,-2h30v6h-30z" style="stroke-width: 0; fill: rgb(47, 111, 219); fill-opacity: 0.18;"/></g><g class="legendlines"><path class="js-line" d="M5,-2h30" style="fill: none; stroke: rgb(99, 110, 250); stroke-opacity: 1; stroke-width: 0px;"/></g><g class="legendsymbols"><g class="legendpoints"/></g></g><rect class="legendtoggle" x="0" y="-9.5" width="90.734375" height="19" style="fill: rgb(0, 0, 0); fill-opacity: 0;"/></g><g class="traces" transform="translate(93.234375,14.5)" style="opacity: 1;"><text class="legendtext" text-anchor="start" x="40" y="4.680000000000001" style="font-family: 'Open Sans', verdana, arial, sans-serif; font-size: 12px; fill: rgb(42, 63, 95); fill-opacity: 1; white-space: pre;">mean over seeds</text><g class="layers" style="opacity: 1;"><g class="legendfill"/><g class="legendlines"><path class="js-line" d="M5,0h30" style="fill: none; stroke: rgb(47, 111, 219); stroke-opacity: 1; stroke-width: 2.5px;"/></g><g class="legendsymbols"><g class="legendpoints"><path class="scatterpts" transform="translate(20,0)" d="M3,0A3,3 0 1,1 0,-3A3,3 0 0,1 3,0Z" style="opacity: 1; stroke-width: 0px; fill: rgb(47, 111, 219); fill-opacity: 1;"/></g></g></g><rect class="legendtoggle" x="0" y="-9.5" width="145.8125" height="19" style="fill: rgb(0, 0, 0); fill-opacity: 0;"/></g><g class="traces" transform="translate(241.546875,14.5)" style="opacity: 0.5;"><text class="legendtext" text-anchor="start" x="40" y="4.680000000000001" style="font-family: 'Open Sans', verdana, arial, sans-serif; font-size: 12px; fill: rgb(42, 63, 95); fill-opacity: 1; white-space: pre;">seed 0</text><g class="layers" style="opacity: 1;"><g class="legendfill"/><g class="legendlines"><path class="js-line" d="M5,0h30" style="fill: none; stroke: rgb(139, 139, 139); stroke-opacity: 1; stroke-dasharray: 3px, 3px; stroke-width: 1px;"/></g><g class="legendsymbols"><g class="legendpoints"/></g></g><rect class="legendtoggle" x="0" y="-9.5" width="82.59375" height="19" style="fill: rgb(0, 0, 0); fill-opacity: 0;"/></g><g class="traces" transform="translate(326.640625,14.5)" style="opacity: 0.5;"><text class="legendtext" text-anchor="start" x="40" y="4.680000000000001" style="font-family: 'Open Sans', verdana, arial, sans-serif; font-size: 12px; fill: rgb(42, 63, 95); fill-opacity: 1; white-space: pre;">seed 12</text><g class="layers" style="opacity: 1;"><g class="legendfill"/><g class="legendlines"><path class="js-line" d="M5,0h30" style="fill: none; stroke: rgb(139, 139, 139); stroke-opacity: 1; stroke-dasharray: 3px, 3px; stroke-width: 1px;"/></g><g class="legendsymbols"><g class="legendpoints"/></g></g><rect class="legendtoggle" x="0" y="-9.5" width="90.21875" height="19" style="fill: rgb(0, 0, 0); fill-opacity: 0;"/></g><g class="traces" transform="translate(419.359375,14.5)" style="opacity: 0.5;"><text class="legendtext" text-anchor="start" x="40" y="4.680000000000001" style="font-family: 'Open Sans', verdana, arial, sans-serif; font-size: 12px; fill: rgb(42, 63, 95); fill-opacity: 1; white-space: pre;">seed 15</text><g class="layers" style="opacity: 1;"><g class="legendfill"/><g class="legendlines"><path class="js-line" d="M5,0h30" style="fill: none; stroke: rgb(139, 139, 139); stroke-opacity: 1; stroke-dasharray: 3px, 3px; stroke-width: 1px;"/></g><g class="legendsymbols"><g class="legendpoints"/></g></g><rect class="legendtoggle" x="0" y="-9.5" width="90.21875" height="19" style="fill: rgb(0, 0, 0); fill-opacity: 0;"/></g><g class="traces" transform="translate(512.078125,14.5)" style="opacity: 0.5;"><text class="legendtext" text-anchor="start" x="40" y="4.680000000000001" style="font-family: 'Open Sans', verdana, arial, sans-serif; font-size: 12px; fill: rgb(42, 63, 95); fill-opacity: 1; white-space: pre;">seed 97</text><g class="layers" style="opacity: 1;"><g class="legendfill"/><g class="legendlines"><path class="js-line" d="M5,0h30" style="fill: none; stroke: rgb(139, 139, 139); stroke-opacity: 1; stroke-dasharray: 3px, 3px; stroke-width: 1px;"/></g><g class="legendsymbols"><g class="legendpoints"/></g></g><rect class="legendtoggle" x="0" y="-9.5" width="90.21875" height="19" style="fill: rgb(0, 0, 0); fill-opacity: 0;"/></g><g class="traces" transform="translate(604.796875,14.5)" style="opacity: 0.5;"><text class="legendtext" text-anchor="start" x="40" y="4.680000000000001" style="font-family: 'Open Sans', verdana, arial, sans-serif; font-size: 12px; fill: rgb(42, 63, 95); fill-opacity: 1; white-space: pre;">seed 98</text><g class="layers" style="opacity: 1;"><g class="legendfill"/><g class="legendlines"><path class="js-line" d="M5,0h30" style="fill: none; stroke: rgb(139, 139, 139); stroke-opacity: 1; stroke-dasharray: 3px, 3px; stroke-width: 1px;"/></g><g class="legendsymbols"><g class="legendpoints"/></g></g><rect class="legendtoggle" x="0" y="-9.5" width="90.21875" height="19" style="fill: rgb(0, 0, 0); fill-opacity: 0;"/></g></g></g><rect class="scrollbar" rx="20" ry="3" width="0" height="0" style="fill: rgb(128, 139, 164); fill-opacity: 1;" x="0" y="0"/></g><g class="g-gtitle"><text class="gtitle" x="50" y="55" text-anchor="start" dy="0em" style="opacity: 1; font-family: 'Open Sans', verdana, arial, sans-serif; font-size: 17px; fill: rgb(42, 63, 95); fill-opacity: 1; white-space: pre;"><tspan class="line" dy="0em" x="50" y="55">return_mean  --  mean over seeds and +- 1 std</tspan><tspan class="line" dy="1.3em" x="50" y="55">​<tspan style="font-size:70%" dy="0.3em">GRU on MiniGrid-MemoryS17Random-v0  --  best_trial  --  5 seed(s) [0, 12, 15, 97, 98]</tspan><tspan dy="-0.21em">​</tspan></tspan></text></g><g class="g-xtitle"><text class="xtitle" x="520" y="540.3" text-anchor="middle" style="opacity: 1; font-family: 'Open Sans', verdana, arial, sans-serif; font-size: 14px; fill: rgb(42, 63, 95); fill-opacity: 1; white-space: pre;">iteration</text></g><g class="g-ytitle"><text class="ytitle" transform="rotate(-90,30.50625,305)" x="30.50625" y="305" text-anchor="middle" style="opacity: 1; font-family: 'Open Sans', verdana, arial, sans-serif; font-size: 14px; fill: rgb(42, 63, 95); fill-opacity: 1; white-space: pre;">return_mean</text></g></g></svg>