<svg class="main-svg" xmlns="http://www.w3.org/2000/svg" xmlns:xlink="http://www.w3.org/1999/xlink" width="1000" height="560" style="" viewBox="0 0 1000 560"><rect x="0" y="0" width="1000" height="560" style="fill: rgb(255, 255, 255); fill-opacity: 1;"/><defs id="defs-b26ecd"><g class="clips"><clipPath id="clipb26ecdxyplot" class="plotclip"><rect width="900" height="390"/></clipPath><clipPath class="axesclip" id="clipb26ecdx"><rect x="70" y="0" width="900" height="560"/></clipPath><clipPath class="axesclip" id="clipb26ecdy"><rect x="0" y="110" width="1000" height="390"/></clipPath><clipPath class="axesclip" id="clipb26ecdxy"><rect x="70" y="110" width="900" height="390"/></clipPath></g><g class="gradients"/><g class="patterns"/></defs><g class="bglayer"/><g class="layer-below"><g class="imagelayer"/><g class="shapelayer"/></g><g class="cartesianlayer"><g class="subplot xy"><g class="layer-subplot"><g class="shapelayer"/><g class="imagelayer"/></g><g class="minor-gridlayer"><g class="x"/><g class="y"/></g><g class="gridlayer"><g class="x"/><g class="y"><path class="ygrid crisp" transform="translate(0,430.36)" d="M70,0h900" style="stroke: rgb(235, 240, 248); stroke-opacity: 1; stroke-width: 1px;"/><path class="ygrid crisp" transform="translate(0,360.71000000000004)" d="M70,0h900" style="stroke: rgb(235, 240, 248); stroke-opacity: 1; stroke-width: 1px;"/><path class="ygrid crisp" transform="translate(0,291.07)" d="M70,0h900" style="stroke: rgb(235, 240, 248); stroke-opacity: 1; stroke-width: 1px;"/><path class="ygrid crisp" transform="translate(0,221.43)" d="M70,0h900" style="stroke: rgb(235, 240, 248); stroke-opacity: 1; stroke-width: 1px;"/><path class="ygrid crisp" transform="translate(0,151.79)" d="M70,0h900" style="stroke: rgb(235, 240, 248); stroke-opacity: 1; stroke-width: 1px;"/></g></g><g class="zerolinelayer"><path class="yzl zl crisp" transform="translate(0,500)" d="M70,0h900" style="stroke: rgb(235, 240, 248); stroke-opacity: 1; stroke-width: 2px;"/></g><g class="layer-between"><g class="shapelayer"/><g class="imagelayer"/></g><path class="xlines-below"/><path class="ylines-below"/><g class="overlines-below"/><g class="xaxislayer-below"/><g class="yaxislayer-below"/><g class="overaxes-below"/><g class="overplot"><g class="xy" transform="translate(70,110)" clip-path="url(#clipb26ecdxyplot)"><g class="barlayer mlayer"><g class="trace bars" style="opacity: 1;"><g class="points"><g class="point"><path d="M18,390V187.86A 4,4 0 0 1 22,183.86H158A 4,4 0 0 1 162,187.86V390Z" style="vector-effect: none; opacity: 1; stroke-width: 0.5px; fill: rgb(42, 120, 214); fill-opacity: 1; stroke: rgb(255, 255, 255); stroke-opacity: 1;"/></g><g class="point"><path d="M198,390V45.79A 4,4 0 0 1 202,41.79H338A 4,4 0 0 1 342,45.79V390Z" style="vector-effect: none; opacity: 1; stroke-width: 0.5px; fill: rgb(235, 104, 52); fill-opacity: 1; stroke: rgb(255, 255, 255); stroke-opacity: 1;"/></g><g class="point"><path d="M378,390V189.25A 4,4 0 0 1 382,185.25H518A 4,4 0 0 1 522,189.25V390Z" style="vector-effect: none; opacity: 1; stroke-width: 0.5px; fill: rgb(27, 175, 122); fill-opacity: 1; stroke: rgb(255, 255, 255); stroke-opacity: 1;"/></g><g class="point"><path d="M558,390V219.89A 4,4 0 0 1 562,215.89H698A 4,4 0 0 1 702,219.89V390Z" style="vector-effect: none; opacity: 1; stroke-width: 0.5px; fill: rgb(237, 161, 0); fill-opacity: 1; stroke: rgb(255, 255, 255); stroke-opacity: 1;"/></g><g class="point"><path d="M738,390V45.79A 4,4 0 0 1 742,41.79H878A 4,4 0 0 1 882,45.79V390Z" style="vector-effect: none; opacity: 1; stroke-width: 0.5px; fill: rgb(74, 58, 167); fill-opacity: 1; stroke: rgb(255, 255, 255); stroke-opacity: 1;"/></g></g><g class="errorbar"><path class="yerror" d="M82,174.41h16m-8,0V193.3m-8,0h16" style="vector-effect: none; stroke-width: 1.5px; stroke: rgb(42, 63, 95); stroke-opacity: 1;"/></g><g class="errorbar"><path class="yerror" d="M262,41.79h16m-8,0V41.79m-8,0h16" style="vector-effect: none; stroke-width: 1.5px; stroke: rgb(42, 63, 95); stroke-opacity: 1;"/></g><g class="errorbar"><path class="yerror" d="M442,161.69h16m-8,0V208.81m-8,0h16" style="vector-effect: none; stroke-width: 1.5px; stroke: rgb(42, 63, 95); stroke-opacity: 1;"/></g><g class="errorbar"><path class="yerror" d="M622,215.89h16m-8,0V215.89m-8,0h16" style="vector-effect: none; stroke-width: 1.5px; stroke: rgb(42, 63, 95); stroke-opacity: 1;"/></g><g class="errorbar"><path class="yerror" d="M802,41.79h16m-8,0V41.79m-8,0h16" style="vector-effect: none; stroke-width: 1.5px; stroke: rgb(42, 63, 95); stroke-opacity: 1;"/></g></g></g></g></g><g class="zerolinelayer-above"/><path class="xlines-above crisp" d="M0,0" style="fill: none;"/><path class="ylines-above crisp" d="M0,0" style="fill: none;"/><g class="overlines-above"/><g class="xaxislayer-above"><g class="xtick"><text text-anchor="middle" x="0" y="513" transform="translate(160,0)" style="font-family: 'Open Sans', verdana, arial, sans-serif; font-size: 12px; fill: rgb(42, 63, 95); fill-opacity: 1; white-space: pre;">MLP</text></g><g class="xtick"><text text-anchor="middle" x="0" y="513" transform="translate(340,0)" style="font-family: 'Open Sans', verdana, arial, sans-serif; font-size: 12px; fill: rgb(42, 63, 95); fill-opacity: 1; white-space: pre;">GRU (full BPTT)</text></g><g class="xtick"><text text-anchor="middle" x="0" y="513" transform="translate(520,0)" style="font-family: 'Open Sans', verdana, arial, sans-serif; font-size: 12px; fill: rgb(42, 63, 95); fill-opacity: 1; white-space: pre;">GRU (tbptt 1)</text></g><g class="xtick"><text text-anchor="middle" x="0" y="513" transform="translate(700,0)" style="font-family: 'Open Sans', verdana, arial, sans-serif; font-size: 12px; fill: rgb(42, 63, 95); fill-opacity: 1; white-space: pre;">GRU (tbptt 4)</text></g><g class="xtick"><text text-anchor="middle" x="0" y="513" transform="translate(880,0)" style="font-family: 'Open Sans', verdana, arial, sans-serif; font-size: 12px; fill: rgb(42, 63, 95); fill-opacity: 1; white-space: pre;">GRU (tbptt 8)</text></g></g><g class="yaxislayer-above"><g class="ytick"><text text-anchor="end" x="69" y="4.199999999999999" transform="translate(0,500)" style="font-family: 'Open Sans', verdana, arial, sans-serif; font-size: 12px; fill: rgb(42, 63, 95); fill-opacity: 1; white-space: pre;">0</text></g><g class="ytick"><text text-anchor="end" x="69" y="4.199999999999999" style="font-family: 'Open Sans', verdana, arial, sans-serif; font-size: 12px; fill: rgb(42, 63, 95); fill-opacity: 1; white-space: pre;" transform="translate(0,430.36)">0.2</text></g><g class="ytick"><text text-anchor="end" x="69" y="4.199999999999999" style="font-family: 'Open Sans', verdana, arial, sans-serif; font-size: 12px; fill: rgb(42, 63, 95); fill-opacity: 1; white-space: pre;" transform="translate(0,360.71000000000004)">0.4</text></g><g class="ytick"><text text-anchor="end" x="69" y="4.199999999999999" style="font-family: 'Open Sans', verdana, arial, sans-serif; font-size: 12px; fill: rgb(42, 63, 95); fill-opacity: 1; white-space: pre;" transform="translate(0,291.07)">0.6</text></g><g class="ytick"><text text-anchor="end" x="69" y="4.199999999999999" style="font-family: 'Open Sans', verdana, arial, sans-serif; font-size: 12px; fill: rgb(42, 63, 95); fill-opacity: 1; white-space: pre;" transform="translate(0,221.43)">0.8</text></g><g class="ytick"><text text-anchor="end" x="69" y="4.199999999999999" style="font-family: 'Open Sans', verdana, arial, sans-serif; font-size: 12px; fill: rgb(42, 63, 95); fill-opacity: 1; white-space: pre;" transform="translate(0,151.79)">1</text></g></g><g class="overaxes-above"/></g></g><g class="polarlayer"/><g class="smithlayer"/><g class="ternarylayer"/><g class="geolayer"/><g class="funnelarealayer"/><g class="pielayer"/><g class="iciclelayer"/><g class="treemaplayer"/><g class="sunburstlayer"/><g class="glimages"/><defs id="topdefs-b26ecd"><g class="clips"/></defs><g class="layer-above"><g class="imagelayer"/><g class="shapelayer"/></g><g class="infolayer"><g class="g-gtitle"><text class="gtitle" x="50" y="55" text-anchor="start" dy="0em" style="opacity: 1; font-family: 'Open Sans', verdana, arial, sans-serif; font-size: 17px; fill: rgb(42, 63, 95); fill-opacity: 1; white-space: pre;"><tspan class="line" dy="0em" x="50" y="55">success_rate at the last evaluated iteration  --  mean +- 1 std</tspan><tspan class="line" dy="1.3em" x="50" y="55">​<tspan style="font-size:70%" dy="0.3em">MiniGrid-MemoryS17Random-v0  --  winning trial of each study  --  5 seed(s), sampled eval</tspan><tspan dy="-0.21em">​</tspan></tspan></text></g><g class="g-xtitle"/><g class="g-ytitle"><text class="ytitle" transform="rotate(-90,29.975,305)" x="29.975" y="305" text-anchor="middle" style="opacity: 1; font-family: 'Open Sans', verdana, arial, sans-serif; font-size: 14px; fill: rgb(42, 63, 95); fill-opacity: 1; white-space: pre;">success_rate</text></g><g class="annotation" data-index="0" style="opacity: 1;"><g class="annotation-text-g" transform="rotate(0,160,270.40999999999997)"><g class="cursor-pointer" transform="translate(112,261)"><rect class="bg" x="0.5" y="0.5" width="96" height="18" style="stroke-width: 1px; stroke: rgb(0, 0, 0); stroke-opacity: 0; fill: rgb(0, 0, 0); fill-opacity: 0;"/><text class="annotation-text" text-anchor="middle" x="48.734375" y="14" style="font-family: 'Open Sans', verdana, arial, sans-serif; font-size: 12px; fill: rgb(42, 63, 95); fill-opacity: 1; white-space: pre;">0.592 +- 0.027</text></g></g></g><g class="annotation" data-index="1" style="opacity: 1;"><g class="annotation-text-g" transform="rotate(0,340,137.79)"><g class="cursor-pointer" transform="translate(292,128)"><rect class="bg" x="0.5" y="0.5" width="96" height="18" style="stroke-width: 1px; stroke: rgb(0, 0, 0); stroke-opacity: 0; fill: rgb(0, 0, 0); fill-opacity: 0;"/><text class="annotation-text" text-anchor="middle" x="48.734375" y="14" style="font-family: 'Open Sans', verdana, arial, sans-serif; font-size: 12px; fill: rgb(42, 63, 95); fill-opacity: 1; white-space: pre;">1.000 +- 0.000</text></g></g></g><g class="annotation" data-index="2" style="opacity: 1;"><g class="annotation-text-g" transform="rotate(0,520,257.69)"><g class="cursor-pointer" transform="translate(472,248)"><rect class="bg" x="0.5" y="0.5" width="96" height="18" style="stroke-width: 1px; stroke: rgb(0, 0, 0); stroke-opacity: 0; fill: rgb(0, 0, 0); fill-opacity: 0;"/><text class="annotation-text" text-anchor="middle" x="48.734375" y="14" style="font-family: 'Open Sans', verdana, arial, sans-serif; font-size: 12px; fill: rgb(42, 63, 95); fill-opacity: 1; white-space: pre;">0.588 +- 0.068</text></g></g></g><g class="annotation" data-index="3" style="opacity: 1;"><g class="annotation-text-g" transform="rotate(0,700,311.89)"><g class="cursor-pointer" transform="translate(652,302)"><rect class="bg" x="0.5" y="0.5" width="96" height="18" style="stroke-width: 1px; stroke: rgb(0, 0, 0); stroke-opacity: 0; fill: rgb(0, 0, 0); fill-opacity: 0;"/><text class="annotation-text" text-anchor="middle" x="48.734375" y="14" style="font-family: 'Open Sans', verdana, arial, sans-serif; font-size: 12px; fill: rgb(42, 63, 95); fill-opacity: 1; white-space: pre;">0.500 +- 0.000</text></g></g></g><g class="annotation" data-index="4" style="opacity: 1;"><g class="annotation-text-g" transform="rotate(0,880,137.79)"><g class="cursor-pointer" transform="translate(832,128)"><rect class="bg" x="0.5" y="0.5" width="96" height="18" style="stroke-width: 1px; stroke: rgb(0, 0, 0); stroke-opacity: 0; fill: rgb(0, 0, 0); fill-opacity: 0;"/><text class="annotation-text" text-anchor="middle" x="48.734375" y="14" style="font-family: 'Open Sans', verdana, arial, sans-serif; font-size: 12px; fill: rgb(42, 63, 95); fill-opacity: 1; white-space: pre;">1.000 +- 0.000</text></g></g></g></g></svg>