<svg class="main-svg" xmlns="http://www.w3.org/2000/svg" xmlns:xlink="http://www.w3.org/1999/xlink" width="1000" height="560" style="" viewBox="0 0 1000 560"><rect x="0" y="0" width="1000" height="560" style="fill: rgb(255, 255, 255); fill-opacity: 1;"/><defs id="defs-ea7431"><g class="clips"><clipPath id="clipea7431xyplot" class="plotclip"><rect width="900" height="390"/></clipPath><clipPath class="axesclip" id="clipea7431x"><rect x="70" y="0" width="900" height="560"/></clipPath><clipPath class="axesclip" id="clipea7431y"><rect x="0" y="110" width="1000" height="390"/></clipPath><clipPath class="axesclip" id="clipea7431xy"><rect x="70" y="110" width="900" height="390"/></clipPath></g><g class="gradients"/><g class="patterns"/></defs><g class="bglayer"/><g class="layer-below"><g class="imagelayer"/><g class="shapelayer"/></g><g class="cartesianlayer"><g class="subplot xy"><g class="layer-subplot"><g class="shapelayer"/><g class="imagelayer"/></g><g class="minor-gridlayer"><g class="x"/><g class="y"/></g><g class="gridlayer"><g class="x"><path class="xgrid crisp" transform="translate(160.09,0)" d="M0,110v390" style="stroke: rgb(235, 240, 248); stroke-opacity: 1; stroke-width: 1px;"/><path class="xgrid crisp" transform="translate(250.18,0)" d="M0,110v390" style="stroke: rgb(235, 240, 248); stroke-opacity: 1; stroke-width: 1px;"/><path class="xgrid crisp" transform="translate(340.27,0)" d="M0,110v390" style="stroke: rgb(235, 240, 248); stroke-opacity: 1; stroke-width: 1px;"/><path class="xgrid crisp" transform="translate(430.36,0)" d="M0,110v390" style="stroke: rgb(235, 240, 248); stroke-opacity: 1; stroke-width: 1px;"/><path class="xgrid crisp" transform="translate(520.45,0)" d="M0,110v390" style="stroke: rgb(235, 240, 248); stroke-opacity: 1; stroke-width: 1px;"/><path class="xgrid crisp" transform="translate(610.54,0)" d="M0,110v390" style="stroke: rgb(235, 240, 248); stroke-opacity: 1; stroke-width: 1px;"/><path class="xgrid crisp" transform="translate(700.63,0)" d="M0,110v390" style="stroke: rgb(235, 240, 248); stroke-opacity: 1; stroke-width: 1px;"/><path class="xgrid crisp" transform="translate(790.72,0)" d="M0,110v390" style="stroke: rgb(235, 240, 248); stroke-opacity: 1; stroke-width: 1px;"/><path class="xgrid crisp" transform="translate(880.81,0)" d="M0,110v390" style="stroke: rgb(235, 240, 248); stroke-opacity: 1; stroke-width: 1px;"/></g><g class="y"><path class="ygrid crisp" transform="translate(0,401.87)" d="M70,0h900" style="stroke: rgb(235, 240, 248); stroke-opacity: 1; stroke-width: 1px;"/><path class="ygrid crisp" transform="translate(0,337.08000000000004)" d="M70,0h900" style="stroke: rgb(235, 240, 248); stroke-opacity: 1; stroke-width: 1px;"/><path class="ygrid crisp" transform="translate(0,272.28999999999996)" d="M70,0h900" style="stroke: rgb(235, 240, 248); stroke-opacity: 1; stroke-width: 1px;"/><path class="ygrid crisp" transform="translate(0,207.5)" d="M70,0h900" style="stroke: rgb(235, 240, 248); stroke-opacity: 1; stroke-width: 1px;"/><path class="ygrid crisp" transform="translate(0,142.71)" d="M70,0h900" style="stroke: rgb(235, 240, 248); stroke-opacity: 1; stroke-width: 1px;"/></g></g><g class="zerolinelayer"><path class="xzl zl crisp" transform="translate(70,0)" d="M0,110v390" style="stroke: rgb(235, 240, 248); stroke-opacity: 1; stroke-width: 2px;"/><path class="yzl zl crisp" transform="translate(0,466.65)" d="M70,0h900" style="stroke: rgb(235, 240, 248); stroke-opacity: 1; stroke-width: 2px;"/></g><g class="layer-between"><g class="shapelayer"/><g class="imagelayer"/></g><path class="xlines-below"/><path class="ylines-below"/><g class="overlines-below"/><g class="xaxislayer-below"/><g class="yaxislayer-below"/><g class="overaxes-below"/><g class="overplot"><g class="xy" transform="translate(70,110)" clip-path="url(#clipea7431xyplot)"><g class="scatterlayer mlayer"><g class="trace scatter tracef0e859" style="stroke-miterlimit: 2; opacity: 1;"><g class="fills"><g><path class="js-fill" d="M0,268.23L9.01,187.06L18.02,200.64L27.03,171.36L36.04,204.02L45.05,189.65L54.05,195.71L63.06,180.97L72.07,195.1L81.08,180.24L90.09,195.05L99.1,186.73L108.11,203.07L117.12,181.56L126.13,196.63L135.14,186.87L144.14,194.39L153.15,168.36L162.16,184.19L171.17,185.73L180.18,202.5L189.19,185.23L198.2,181.58L207.21,182.21L216.22,180.6L225.23,183.57L234.23,163.01L243.24,190.99L252.25,185.51L261.26,207.02L270.27,183.42L279.28,192.1L288.29,185.25L297.3,200.92L306.31,167.61L315.32,200.45L324.32,200.07L333.33,193.27L342.34,198.08L351.35,188.22L360.36,182.26L369.37,167.49L378.38,205.12L387.39,179.48L396.4,196.23L405.41,177.23L414.41,192.73L423.42,195.79L432.43,167.77L441.44,178.65L450.45,175.51L459.46,165.62L468.47,189.96L477.48,203.22L486.49,178.95L495.5,178.9L504.5,188.85L513.51,194.01L522.52,165.93L531.53,183.5L540.54,174.37L549.55,189.8L558.56,203.62L567.57,170.58L576.58,165.1L585.59,181.3L594.59,164.8L603.6,154.57L612.61,179.97L621.62,173.29L630.63,173.35L639.64,172.45L648.65,160.76L657.66,177.53L666.67,180.38L675.68,167.25L684.68,182.41L693.69,181.52L702.7,160.7L711.71,175.57L720.72,184.89L729.73,178.17L738.74,161.45L747.75,170.5L756.76,168.52L765.77,158.96L774.77,157.03L783.78,169.61L792.79,189.03L801.8,167.08L810.81,158.62L819.82,141.58L828.83,155.95L837.84,187.98L846.85,166.74L855.86,153.56L864.86,155.08L873.87,164.64L882.88,154.3L891.89,154.56L900,167.36L900,185.87L891.89,209.55L882.88,173.65L873.87,181.9L864.86,192.27L855.86,184.64L846.85,210.38L837.84,218.81L828.83,189L819.82,196.65L810.81,173.93L801.8,199.55L792.79,216.96L783.78,198.83L774.77,192.02L765.77,213.87L756.76,206.43L747.75,184.33L738.74,217.99L729.73,209.09L720.72,208.3L711.71,213.6L702.7,236.81L693.69,197.33L684.68,210.16L675.68,213.67L666.67,215.36L657.66,210.97L648.65,210.71L639.64,202.49L630.63,216.68L621.62,195.34L612.61,231.99L603.6,213.73L594.59,208.39L585.59,201.16L576.58,200.51L567.57,212.78L558.56,238.01L549.55,220.47L540.54,221.12L531.53,203.11L522.52,207.04L513.51,225.33L504.5,220.22L495.5,228.74L486.49,210.69L477.48,218.01L468.47,217.68L459.46,204.16L450.45,229.01L441.44,231.44L432.43,222.71L423.42,220.33L414.41,224.17L405.41,207.13L396.4,234.75L387.39,227.51L378.38,233.44L369.37,211.08L360.36,231.3L351.35,235.85L342.34,224.64L333.33,227.93L324.32,217.36L315.32,209.15L306.31,193.57L297.3,224.11L288.29,223.82L279.28,216.32L261.26,224.5L252.25,210.06L243.24,230.85L234.23,210.73L225.23,198.72L216.22,220.35L207.21,220.4L198.2,198.06L189.19,235.99L180.18,239.09L171.17,217.23L162.16,215.1L153.15,211.7L144.14,214.33L135.14,204.97L126.13,210.1L108.11,224.13L99.1,213.34L90.09,216.06L81.08,221.67L72.07,221.16L63.06,205L54.05,213.84L45.05,212.47L36.04,210.92L27.03,216.34L18.02,237.44L9.01,231.9L0,303.69Z" style="fill: rgb(42, 120, 214); fill-opacity: 0.12; stroke-width: 0;"/></g></g><g class="errorbars"/><g class="lines"><path class="js-line" d="M0,268.23L9.01,187.06L18.02,200.64L27.03,171.36L36.04,204.02L45.05,189.65L54.05,195.71L63.06,180.97L72.07,195.1L81.08,180.24L90.09,195.05L99.1,186.73L108.11,203.07L117.12,181.56L126.13,196.63L135.14,186.87L144.14,194.39L153.15,168.36L162.16,184.19L171.17,185.73L180.18,202.5L189.19,185.23L198.2,181.58L207.21,182.21L216.22,180.6L225.23,183.57L234.23,163.01L243.24,190.99L252.25,185.51L261.26,207.02L270.27,183.42L279.28,192.1L288.29,185.25L297.3,200.92L306.31,167.61L315.32,200.45L324.32,200.07L333.33,193.27L342.34,198.08L351.35,188.22L360.36,182.26L369.37,167.49L378.38,205.12L387.39,179.48L396.4,196.23L405.41,177.23L414.41,192.73L423.42,195.79L432.43,167.77L441.44,178.65L450.45,175.51L459.46,165.62L468.47,189.96L477.48,203.22L486.49,178.95L495.5,178.9L504.5,188.85L513.51,194.01L522.52,165.93L531.53,183.5L540.54,174.37L549.55,189.8L558.56,203.62L567.57,170.58L576.58,165.1L585.59,181.3L594.59,164.8L603.6,154.57L612.61,179.97L621.62,173.29L630.63,173.35L639.64,172.45L648.65,160.76L657.66,177.53L666.67,180.38L675.68,167.25L684.68,182.41L693.69,181.52L702.7,160.7L711.71,175.57L720.72,184.89L729.73,178.17L738.74,161.45L747.75,170.5L756.76,168.52L765.77,158.96L774.77,157.03L783.78,169.61L792.79,189.03L801.8,167.08L810.81,158.62L819.82,141.58L828.83,155.95L837.84,187.98L846.85,166.74L855.86,153.56L864.86,155.08L873.87,164.64L882.88,154.3L891.89,154.56L900,167.36L900,185.87L891.89,209.55L882.88,173.65L873.87,181.9L864.86,192.27L855.86,184.64L846.85,210.38L837.84,218.81L828.83,189L819.82,196.65L810.81,173.93L801.8,199.55L792.79,216.96L783.78,198.83L774.77,192.02L765.77,213.87L756.76,206.43L747.75,184.33L738.74,217.99L729.73,209.09L720.72,208.3L711.71,213.6L702.7,236.81L693.69,197.33L684.68,210.16L675.68,213.67L666.67,215.36L657.66,210.97L648.65,210.71L639.64,202.49L630.63,216.68L621.62,195.34L612.61,231.99L603.6,213.73L594.59,208.39L585.59,201.16L576.58,200.51L567.57,212.78L558.56,238.01L549.55,220.47L540.54,221.12L531.53,203.11L522.52,207.04L513.51,225.33L504.5,220.22L495.5,228.74L486.49,210.69L477.48,218.01L468.47,217.68L459.46,204.16L450.45,229.01L441.44,231.44L432.43,222.71L423.42,220.33L414.41,224.17L405.41,207.13L396.4,234.75L387.39,227.51L378.38,233.44L369.37,211.08L360.36,231.3L351.35,235.85L342.34,224.64L333.33,227.93L324.32,217.36L315.32,209.15L306.31,193.57L297.3,224.11L288.29,223.82L279.28,216.32L261.26,224.5L252.25,210.06L243.24,230.85L234.23,210.73L225.23,198.72L216.22,220.35L207.21,220.4L198.2,198.06L189.19,235.99L180.18,239.09L171.17,217.23L162.16,215.1L153.15,211.7L144.14,214.33L135.14,204.97L126.13,210.1L108.11,224.13L99.1,213.34L90.09,216.06L81.08,221.67L72.07,221.16L63.06,205L54.05,213.84L45.05,212.47L36.04,210.92L27.03,216.34L18.02,237.44L9.01,231.9L0,303.69" style="vector-effect: none; fill: none; stroke: rgb(99, 110, 250); stroke-opacity: 1; stroke-width: 0px; opacity: 1;"/></g><g class="points"/><g class="text"/></g><g class="trace scatter trace3b6d85" style="stroke-miterlimit: 2; opacity: 1;"><g class="fills"><g><path class="js-fill" d="M0,297.01L9.01,183.38L18.02,190.56L27.03,188.66L36.04,187.73L45.05,199.2L54.05,190.55L63.06,189.98L72.07,194.97L81.08,194.2L90.09,191.03L99.1,185.86L108.11,190.81L117.12,181.71L126.13,175.59L135.14,185.33L144.14,185.83L153.15,177.82L162.16,189.4L171.17,196.56L180.18,180.16L189.19,185.49L198.2,176.35L207.21,162.88L216.22,180.41L225.23,169.63L234.23,115.47L252.25,75.35L261.26,66.52L270.27,77.27L279.28,71.86L288.29,63.19L297.3,92.21L306.31,59.55L315.32,77.44L324.32,70.8L333.33,45.79L342.34,37.64L351.35,32.1L360.36,32.45L369.37,27.67L378.38,35.7L387.39,32.51L396.4,31.2L405.41,33.33L414.41,31.38L423.42,27.82L432.43,32.52L441.44,34.07L450.45,32.69L459.46,28.51L468.47,28.44L477.48,22.15L495.5,34.32L504.5,36.41L513.51,37.69L522.52,40.09L531.53,39.5L540.54,37.64L549.55,41.22L558.56,39.48L567.57,36.28L576.58,35.62L585.59,33.62L594.59,34.18L603.6,35.15L612.61,40.34L621.62,38.28L630.63,37.65L639.64,40.91L648.65,35.61L657.66,41.59L666.67,40.88L675.68,45.97L684.68,46.33L693.69,45.24L702.7,45.25L711.71,45.27L720.72,46.55L729.73,44.05L738.74,45.17L747.75,44.06L756.76,43.98L765.77,40.77L774.77,45.24L783.78,42.32L792.79,40.6L801.8,45.57L810.81,45.63L837.84,45.56L846.85,45.53L855.86,44.35L864.86,45.43L873.87,38.28L882.88,43.49L891.89,45.47L900,45.51L900,46.99L891.89,46.9L882.88,55.49L873.87,70.47L864.86,46.92L855.86,51.84L846.85,46.96L837.84,47.09L828.83,46.97L819.82,49.39L810.81,47.13L801.8,47.45L792.79,63.08L783.78,58.16L774.77,50.64L765.77,65.8L756.76,52.92L747.75,52.83L738.74,59.86L729.73,52.91L720.72,55.3L711.71,53.47L702.7,56.81L693.69,49.3L675.68,51.44L666.67,73.39L657.66,60.24L648.65,78.09L639.64,73.55L630.63,78.81L621.62,70.37L612.61,70.21L603.6,80.32L594.59,88.88L585.59,84.52L576.58,85L567.57,76.89L558.56,73.58L549.55,81.86L540.54,72.76L531.53,73.23L522.52,78.53L513.51,79.58L504.5,78.04L495.5,103.55L486.49,115.91L477.48,122.21L468.47,116.21L450.45,136.75L441.44,140.28L432.43,141.82L423.42,132.25L414.41,140.16L405.41,138.38L396.4,150.7L387.39,149.04L378.38,151.27L369.37,149.53L360.36,153.04L351.35,151.36L342.34,148.93L333.33,156.34L324.32,181.63L315.32,190.06L306.31,187.86L297.3,203.77L288.29,206.61L279.28,205.98L270.27,208.39L261.26,208.89L252.25,210.2L243.24,209.99L234.23,206.07L225.23,205.95L216.22,200.33L207.21,207.37L198.2,199.47L189.19,202.8L180.18,203.06L171.17,201.78L162.16,216.31L153.15,202.67L144.14,210.12L135.14,200.42L126.13,207.79L117.12,206.79L108.11,202.94L99.1,202.88L90.09,205.06L81.08,202.37L72.07,204.1L63.06,207.25L54.05,203.6L45.05,210.94L36.04,225.97L27.03,206.08L18.02,205.7L9.01,215.4L0,319.25Z" style="fill: rgb(235, 104, 52); fill-opacity: 0.12; stroke-width: 0;"/></g></g><g class="errorbars"/><g class="lines"><path class="js-line" d="M0,297.01L9.01,183.38L18.02,190.56L27.03,188.66L36.04,187.73L45.05,199.2L54.05,190.55L63.06,189.98L72.07,194.97L81.08,194.2L90.09,191.03L99.1,185.86L108.11,190.81L117.12,181.71L126.13,175.59L135.14,185.33L144.14,185.83L153.15,177.82L162.16,189.4L171.17,196.56L180.18,180.16L189.19,185.49L198.2,176.35L207.21,162.88L216.22,180.41L225.23,169.63L234.23,115.47L252.25,75.35L261.26,66.52L270.27,77.27L279.28,71.86L288.29,63.19L297.3,92.21L306.31,59.55L315.32,77.44L324.32,70.8L333.33,45.79L342.34,37.64L351.35,32.1L360.36,32.45L369.37,27.67L378.38,35.7L387.39,32.51L396.4,31.2L405.41,33.33L414.41,31.38L423.42,27.82L432.43,32.52L441.44,34.07L450.45,32.69L459.46,28.51L468.47,28.44L477.48,22.15L495.5,34.32L504.5,36.41L513.51,37.69L522.52,40.09L531.53,39.5L540.54,37.64L549.55,41.22L558.56,39.48L567.57,36.28L576.58,35.62L585.59,33.62L594.59,34.18L603.6,35.15L612.61,40.34L621.62,38.28L630.63,37.65L639.64,40.91L648.65,35.61L657.66,41.59L666.67,40.88L675.68,45.97L684.68,46.33L693.69,45.24L702.7,45.25L711.71,45.27L720.72,46.55L729.73,44.05L738.74,45.17L747.75,44.06L756.76,43.98L765.77,40.77L774.77,45.24L783.78,42.32L792.79,40.6L801.8,45.57L810.81,45.63L837.84,45.56L846.85,45.53L855.86,44.35L864.86,45.43L873.87,38.28L882.88,43.49L891.89,45.47L900,45.51L900,46.99L891.89,46.9L882.88,55.49L873.87,70.47L864.86,46.92L855.86,51.84L846.85,46.96L837.84,47.09L828.83,46.97L819.82,49.39L810.81,47.13L801.8,47.45L792.79,63.08L783.78,58.16L774.77,50.64L765.77,65.8L756.76,52.92L747.75,52.83L738.74,59.86L729.73,52.91L720.72,55.3L711.71,53.47L702.7,56.81L693.69,49.3L675.68,51.44L666.67,73.39L657.66,60.24L648.65,78.09L639.64,73.55L630.63,78.81L621.62,70.37L612.61,70.21L603.6,80.32L594.59,88.88L585.59,84.52L576.58,85L567.57,76.89L558.56,73.58L549.55,81.86L540.54,72.76L531.53,73.23L522.52,78.53L513.51,79.58L504.5,78.04L495.5,103.55L486.49,115.91L477.48,122.21L468.47,116.21L450.45,136.75L441.44,140.28L432.43,141.82L423.42,132.25L414.41,140.16L405.41,138.38L396.4,150.7L387.39,149.04L378.38,151.27L369.37,149.53L360.36,153.04L351.35,151.36L342.34,148.93L333.33,156.34L324.32,181.63L315.32,190.06L306.31,187.86L297.3,203.77L288.29,206.61L279.28,205.98L270.27,208.39L261.26,208.89L252.25,210.2L243.24,209.99L234.23,206.07L225.23,205.95L216.22,200.33L207.21,207.37L198.2,199.47L189.19,202.8L180.18,203.06L171.17,201.78L162.16,216.31L153.15,202.67L144.14,210.12L135.14,200.42L126.13,207.79L117.12,206.79L108.11,202.94L99.1,202.88L90.09,205.06L81.08,202.37L72.07,204.1L63.06,207.25L54.05,203.6L45.05,210.94L36.04,225.97L27.03,206.08L18.02,205.7L9.01,215.4L0,319.25" style="vector-effect: none; fill: none; stroke: rgb(239, 85, 59); stroke-opacity: 1; stroke-width: 0px; opacity: 1;"/></g><g class="points"/><g class="text"/></g><g class="trace scatter tracea68609" style="stroke-miterlimit: 2; opacity: 1;"><g class="fills"><g><path class="js-fill" d="M0,295.24L9.01,192.63L18.02,196.95L27.03,172.97L36.04,158.53L45.05,175.91L54.05,176.11L63.06,195.15L72.07,180.8L81.08,183.95L90.09,181.46L99.1,184.63L108.11,184.7L117.12,203.33L126.13,189.94L135.14,190.05L144.14,191.54L153.15,194.74L162.16,192.38L171.17,187.26L180.18,196L189.19,193.22L198.2,192.35L207.21,193.27L216.22,191.52L225.23,190.29L234.23,195.57L243.24,196.8L252.25,190.9L261.26,181.66L270.27,195.42L279.28,192.45L288.29,194.63L297.3,190.18L306.31,196.9L315.32,194.26L324.32,193.99L333.33,194.36L342.34,197L351.35,193.8L360.36,196.95L369.37,195.11L378.38,197.5L387.39,192.86L396.4,195.01L405.41,197.39L414.41,191.08L423.42,197.02L432.43,185.07L441.44,194.05L450.45,194.09L459.46,189.86L468.47,174.6L477.48,174.64L486.49,195.11L495.5,196.27L504.5,178.5L513.51,193.74L522.52,196.18L531.53,182.23L540.54,194.02L549.55,190.01L558.56,193.02L567.57,195.3L576.58,171.35L585.59,196.55L594.59,182.81L603.6,193.7L612.61,190.62L621.62,185.12L630.63,177.5L639.64,197.7L648.65,196.33L657.66,190.64L666.67,191L675.68,179.9L684.68,181.55L693.69,163.87L702.7,166.39L711.71,172.8L720.72,163.98L729.73,190.82L738.74,166.64L747.75,179.63L756.76,177.23L765.77,176.54L774.77,167.18L783.78,177.11L792.79,185.3L801.8,175.98L810.81,158.45L819.82,174.07L828.83,174.47L837.84,158.28L846.85,160.52L855.86,143.41L864.86,139.51L873.87,155.31L882.88,161.69L891.89,168.64L900,150.18L900,191.86L891.89,201.7L873.87,202.77L864.86,195.71L855.86,201.78L846.85,204.52L837.84,214.26L828.83,206.25L819.82,202.04L810.81,205.77L801.8,209.28L792.79,202.61L783.78,200.79L774.77,207.78L765.77,201.6L756.76,208.25L747.75,207.87L738.74,216.76L729.73,211.36L720.72,208.57L711.71,210.15L702.7,203.4L693.69,205.58L684.68,203.09L675.68,201.69L666.67,204.15L657.66,204.54L648.65,207.1L639.64,207.36L630.63,202.28L621.62,201.87L612.61,207.33L603.6,200.59L594.59,203.79L585.59,202.61L576.58,206.62L567.57,205.2L558.56,217.6L549.55,200.33L540.54,209.05L531.53,202.63L522.52,201.54L513.51,198.78L504.5,203.86L495.5,201.48L486.49,205.1L468.47,205.15L459.46,220.54L450.45,198.67L441.44,202.22L432.43,199.91L423.42,203.4L414.41,216.91L405.41,197.87L396.4,205.39L387.39,210.23L378.38,198.19L369.37,198.67L360.36,204.43L351.35,199.92L342.34,204.59L333.33,204.14L324.32,199.63L315.32,204.95L306.31,205.21L297.3,199.74L288.29,209.3L279.28,200L270.27,201.77L261.26,197.66L252.25,209.13L243.24,209.4L234.23,203.19L225.23,209.21L207.21,206.82L198.2,206.41L189.19,198.36L180.18,207.28L171.17,198.23L162.16,205.39L153.15,206.1L144.14,209.43L135.14,214.26L126.13,217L117.12,220.99L108.11,208.35L99.1,196.42L90.09,229.29L81.08,219.22L72.07,210.88L63.06,211.48L54.05,199.97L45.05,202.47L36.04,220.48L27.03,237.96L18.02,235.85L9.01,228.25L0,307.29Z" style="fill: rgb(27, 175, 122); fill-opacity: 0.12; stroke-width: 0;"/></g></g><g class="errorbars"/><g class="lines"><path class="js-line" d="M0,295.24L9.01,192.63L18.02,196.95L27.03,172.97L36.04,158.53L45.05,175.91L54.05,176.11L63.06,195.15L72.07,180.8L81.08,183.95L90.09,181.46L99.1,184.63L108.11,184.7L117.12,203.33L126.13,189.94L135.14,190.05L144.14,191.54L153.15,194.74L162.16,192.38L171.17,187.26L180.18,196L189.19,193.22L198.2,192.35L207.21,193.27L216.22,191.52L225.23,190.29L234.23,195.57L243.24,196.8L252.25,190.9L261.26,181.66L270.27,195.42L279.28,192.45L288.29,194.63L297.3,190.18L306.31,196.9L315.32,194.26L324.32,193.99L333.33,194.36L342.34,197L351.35,193.8L360.36,196.95L369.37,195.11L378.38,197.5L387.39,192.86L396.4,195.01L405.41,197.39L414.41,191.08L423.42,197.02L432.43,185.07L441.44,194.05L450.45,194.09L459.46,189.86L468.47,174.6L477.48,174.64L486.49,195.11L495.5,196.27L504.5,178.5L513.51,193.74L522.52,196.18L531.53,182.23L540.54,194.02L549.55,190.01L558.56,193.02L567.57,195.3L576.58,171.35L585.59,196.55L594.59,182.81L603.6,193.7L612.61,190.62L621.62,185.12L630.63,177.5L639.64,197.7L648.65,196.33L657.66,190.64L666.67,191L675.68,179.9L684.68,181.55L693.69,163.87L702.7,166.39L711.71,172.8L720.72,163.98L729.73,190.82L738.74,166.64L747.75,179.63L756.76,177.23L765.77,176.54L774.77,167.18L783.78,177.11L792.79,185.3L801.8,175.98L810.81,158.45L819.82,174.07L828.83,174.47L837.84,158.28L846.85,160.52L855.86,143.41L864.86,139.51L873.87,155.31L882.88,161.69L891.89,168.64L900,150.18L900,191.86L891.89,201.7L873.87,202.77L864.86,195.71L855.86,201.78L846.85,204.52L837.84,214.26L828.83,206.25L819.82,202.04L810.81,205.77L801.8,209.28L792.79,202.61L783.78,200.79L774.77,207.78L765.77,201.6L756.76,208.25L747.75,207.87L738.74,216.76L729.73,211.36L720.72,208.57L711.71,210.15L702.7,203.4L693.69,205.58L684.68,203.09L675.68,201.69L666.67,204.15L657.66,204.54L648.65,207.1L639.64,207.36L630.63,202.28L621.62,201.87L612.61,207.33L603.6,200.59L594.59,203.79L585.59,202.61L576.58,206.62L567.57,205.2L558.56,217.6L549.55,200.33L540.54,209.05L531.53,202.63L522.52,201.54L513.51,198.78L504.5,203.86L495.5,201.48L486.49,205.1L468.47,205.15L459.46,220.54L450.45,198.67L441.44,202.22L432.43,199.91L423.42,203.4L414.41,216.91L405.41,197.87L396.4,205.39L387.39,210.23L378.38,198.19L369.37,198.67L360.36,204.43L351.35,199.92L342.34,204.59L333.33,204.14L324.32,199.63L315.32,204.95L306.31,205.21L297.3,199.74L288.29,209.3L279.28,200L270.27,201.77L261.26,197.66L252.25,209.13L243.24,209.4L234.23,203.19L225.23,209.21L207.21,206.82L198.2,206.41L189.19,198.36L180.18,207.28L171.17,198.23L162.16,205.39L153.15,206.1L144.14,209.43L135.14,214.26L126.13,217L117.12,220.99L108.11,208.35L99.1,196.42L90.09,229.29L81.08,219.22L72.07,210.88L63.06,211.48L54.05,199.97L45.05,202.47L36.04,220.48L27.03,237.96L18.02,235.85L9.01,228.25L0,307.29" style="vector-effect: none; fill: none; stroke: rgb(0, 204, 150); stroke-opacity: 1; stroke-width: 0px; opacity: 1;"/></g><g class="points"/><g class="text"/></g><g class="trace scatter traceadf96a" style="stroke-miterlimit: 2; opacity: 1;"><g class="fills"><g><path class="js-fill" d="M0,302.88L9.01,252.2L18.02,239.98L27.03,209.13L36.04,201.22L45.05,186.25L54.05,186.64L63.06,186.37L72.07,188.11L81.08,190.9L90.09,188.03L99.1,166.49L108.11,190.69L117.12,191.65L126.13,196.98L135.14,193.6L144.14,193.64L153.15,192.44L162.16,192.46L171.17,188.7L180.18,191.87L189.19,193.53L198.2,196.16L207.21,193.53L216.22,195.97L225.23,197.24L234.23,197.22L243.24,193.8L252.25,193.51L261.26,195.95L270.27,191.85L279.28,197.23L288.29,197.23L315.32,197.21L324.32,196.15L333.33,193.49L342.34,193.56L351.35,196.18L360.36,197.22L369.37,189.7L378.38,197.23L387.39,189.7L396.4,193.56L405.41,196.17L414.41,197.22L423.42,196.15L432.43,197.22L441.44,193.75L450.45,197.22L486.49,197.26L495.5,195.95L504.5,197.21L513.51,197.21L522.52,197.21L531.53,196.16L540.54,197.21L549.55,197.21L558.56,193.54L567.57,197.21L630.63,197.22L639.64,193.41L648.65,196.14L657.66,197.21L666.67,196.18L675.68,193.53L684.68,197.22L693.69,197.22L702.7,197.21L711.71,193.54L720.72,196.15L729.73,196.14L738.74,197.22L747.75,197.21L756.76,193.52L765.77,193.54L783.78,193.33L792.79,197.22L801.8,197.21L810.81,193.54L819.82,197.21L828.83,193.49L837.84,197.21L846.85,196.14L855.86,196.14L864.86,197.21L873.87,196.14L882.88,193.54L891.89,197.23L900,197.21L900,197.57L891.89,197.58L882.88,198.7L873.87,201.21L864.86,197.56L855.86,201.21L846.85,201.21L837.84,197.56L828.83,198.72L819.82,197.57L810.81,198.71L801.8,197.56L792.79,197.56L783.78,201.42L774.77,198.71L765.77,198.7L756.76,198.71L747.75,197.56L738.74,197.56L729.73,201.21L720.72,201.19L711.71,198.71L702.7,197.56L693.69,197.56L684.68,197.56L675.68,198.71L666.67,201.11L657.66,197.57L648.65,201.19L639.64,201.41L630.63,197.56L621.62,197.57L567.57,197.57L558.56,198.7L549.55,197.57L540.54,197.56L531.53,201.18L522.52,197.57L504.5,197.57L495.5,201.37L486.49,197.65L477.48,197.58L450.45,197.57L441.44,198.5L432.43,197.56L423.42,201.21L414.41,197.57L405.41,201.15L396.4,198.71L387.39,199.99L378.38,197.58L369.37,200L360.36,197.56L351.35,201.16L342.34,198.7L333.33,198.73L324.32,201.19L315.32,197.57L270.27,197.87L261.26,201.39L252.25,201.32L243.24,198.65L234.23,197.56L225.23,197.58L216.22,201.4L207.21,198.74L198.2,201.19L189.19,201.27L180.18,197.86L171.17,198.51L162.16,209.96L153.15,209.96L144.14,209.08L135.14,206.41L126.13,203.01L117.12,200.88L108.11,204.43L99.1,205.76L90.09,197.1L81.08,204.5L72.07,210.9L63.06,222.1L54.05,222.18L45.05,223.82L36.04,300.38L27.03,321.95L18.02,356.45L9.01,370.5L0,345.4Z" style="fill: rgb(237, 161, 0); fill-opacity: 0.12; stroke-width: 0;"/></g></g><g class="errorbars"/><g class="lines"><path class="js-line" d="M0,302.88L9.01,252.2L18.02,239.98L27.03,209.13L36.04,201.22L45.05,186.25L54.05,186.64L63.06,186.37L72.07,188.11L81.08,190.9L90.09,188.03L99.1,166.49L108.11,190.69L117.12,191.65L126.13,196.98L135.14,193.6L144.14,193.64L153.15,192.44L162.16,192.46L171.17,188.7L180.18,191.87L189.19,193.53L198.2,196.16L207.21,193.53L216.22,195.97L225.23,197.24L234.23,197.22L243.24,193.8L252.25,193.51L261.26,195.95L270.27,191.85L279.28,197.23L288.29,197.23L315.32,197.21L324.32,196.15L333.33,193.49L342.34,193.56L351.35,196.18L360.36,197.22L369.37,189.7L378.38,197.23L387.39,189.7L396.4,193.56L405.41,196.17L414.41,197.22L423.42,196.15L432.43,197.22L441.44,193.75L450.45,197.22L486.49,197.26L495.5,195.95L504.5,197.21L513.51,197.21L522.52,197.21L531.53,196.16L540.54,197.21L549.55,197.21L558.56,193.54L567.57,197.21L630.63,197.22L639.64,193.41L648.65,196.14L657.66,197.21L666.67,196.18L675.68,193.53L684.68,197.22L693.69,197.22L702.7,197.21L711.71,193.54L720.72,196.15L729.73,196.14L738.74,197.22L747.75,197.21L756.76,193.52L765.77,193.54L783.78,193.33L792.79,197.22L801.8,197.21L810.81,193.54L819.82,197.21L828.83,193.49L837.84,197.21L846.85,196.14L855.86,196.14L864.86,197.21L873.87,196.14L882.88,193.54L891.89,197.23L900,197.21L900,197.57L891.89,197.58L882.88,198.7L873.87,201.21L864.86,197.56L855.86,201.21L846.85,201.21L837.84,197.56L828.83,198.72L819.82,197.57L810.81,198.71L801.8,197.56L792.79,197.56L783.78,201.42L774.77,198.71L765.77,198.7L756.76,198.71L747.75,197.56L738.74,197.56L729.73,201.21L720.72,201.19L711.71,198.71L702.7,197.56L693.69,197.56L684.68,197.56L675.68,198.71L666.67,201.11L657.66,197.57L648.65,201.19L639.64,201.41L630.63,197.56L621.62,197.57L567.57,197.57L558.56,198.7L549.55,197.57L540.54,197.56L531.53,201.18L522.52,197.57L504.5,197.57L495.5,201.37L486.49,197.65L477.48,197.58L450.45,197.57L441.44,198.5L432.43,197.56L423.42,201.21L414.41,197.57L405.41,201.15L396.4,198.71L387.39,199.99L378.38,197.58L369.37,200L360.36,197.56L351.35,201.16L342.34,198.7L333.33,198.73L324.32,201.19L315.32,197.57L270.27,197.87L261.26,201.39L252.25,201.32L243.24,198.65L234.23,197.56L225.23,197.58L216.22,201.4L207.21,198.74L198.2,201.19L189.19,201.27L180.18,197.86L171.17,198.51L162.16,209.96L153.15,209.96L144.14,209.08L135.14,206.41L126.13,203.01L117.12,200.88L108.11,204.43L99.1,205.76L90.09,197.1L81.08,204.5L72.07,210.9L63.06,222.1L54.05,222.18L45.05,223.82L36.04,300.38L27.03,321.95L18.02,356.45L9.01,370.5L0,345.4" style="vector-effect: none; fill: none; stroke: rgb(171, 99, 250); stroke-opacity: 1; stroke-width: 0px; opacity: 1;"/></g><g class="points"/><g class="text"/></g><g class="trace scatter trace5394c2" style="stroke-miterlimit: 2; opacity: 1;"><g class="fills"><g><path class="js-fill" d="M0,295.29L9.01,203.54L18.02,188.31L27.03,175.4L36.04,181.05L45.05,169.76L54.05,167.34L63.06,188.68L72.07,175.96L81.08,193.45L90.09,192.3L99.1,169.82L108.11,188.34L117.12,174.32L126.13,180.03L135.14,170.38L144.14,187.32L153.15,198.32L162.16,182.54L171.17,205.48L180.18,172.08L189.19,197.02L198.2,181.6L207.21,175.72L216.22,183.39L225.23,178.4L234.23,175.01L243.24,178.28L252.25,168.86L261.26,170.77L270.27,148.98L279.28,159.9L288.29,168.3L297.3,163.66L306.31,176.24L315.32,166.03L324.32,162.98L333.33,153.49L342.34,128.78L351.35,137.94L360.36,131.22L369.37,136.56L378.38,123.83L387.39,127.59L396.4,133.29L405.41,132.69L414.41,132.93L423.42,132.44L432.43,134.11L441.44,118.69L450.45,121.59L459.46,110.6L468.47,85.53L477.48,121.16L486.49,92.99L504.5,71.01L513.51,63.14L522.52,93.64L531.53,94.93L540.54,53.81L549.55,48.31L558.56,59.33L567.57,39.58L576.58,32.38L585.59,36.48L594.59,28.92L603.6,32.31L612.61,65.58L621.62,37.18L630.63,22.83L639.64,19.5L648.65,21.92L657.66,21.62L666.67,20.41L675.68,20.92L684.68,25.41L693.69,27.11L702.7,26.39L711.71,28.11L720.72,43.6L729.73,29.76L738.74,41.38L747.75,40.19L756.76,26.74L765.77,44.99L774.77,44.96L783.78,45.81L801.8,45.75L810.81,37.82L819.82,45.53L828.83,45.87L837.84,46.56L846.85,44.69L855.86,44.53L864.86,45.23L873.87,43.43L882.88,45.11L900,45.13L900,47.44L882.88,47.47L873.87,59.65L864.86,47.54L855.86,50.63L846.85,50.62L837.84,58.77L828.83,51.83L819.82,52.8L810.81,77.05L801.8,52.55L792.79,52.58L783.78,47.61L774.77,58.26L765.77,56.44L756.76,106.89L747.75,67.5L738.74,96.09L729.73,105.45L720.72,86.31L711.71,116.88L702.7,115.79L693.69,120.13L684.68,132.28L675.68,139.05L657.66,130.82L648.65,130.87L639.64,138.58L630.63,135.62L621.62,149.73L612.61,157.99L603.6,140.53L594.59,129.56L576.58,128.31L567.57,130.23L558.56,147.23L549.55,145.82L540.54,161.31L531.53,168.58L522.52,181.24L513.51,163.14L504.5,167.77L495.5,168.89L486.49,172.76L477.48,191.65L468.47,184.11L459.46,180.77L450.45,190.92L441.44,189.45L432.43,184.57L423.42,188.69L414.41,193.19L405.41,196L396.4,193.12L387.39,208.95L378.38,197.64L369.37,200.18L360.36,213.38L351.35,214.33L342.34,215.89L333.33,191.69L324.32,190.52L315.32,194.7L306.31,194.55L297.3,197.78L288.29,187.43L279.28,203.54L270.27,188.76L261.26,192.54L252.25,196.92L243.24,200.24L234.23,195.86L225.23,205.05L216.22,238.25L207.21,198.03L198.2,219.92L189.19,214.17L180.18,212.19L171.17,211.33L162.16,211.52L153.15,215.63L144.14,211.68L135.14,228.66L126.13,216.24L117.12,224.76L108.11,197.66L99.1,210.97L90.09,226.63L81.08,220.61L72.07,208.46L63.06,219L54.05,216.87L45.05,216.42L36.04,225.87L27.03,213.3L18.02,233.05L9.01,230.59L0,317.35Z" style="fill: rgb(74, 58, 167); fill-opacity: 0.12; stroke-width: 0;"/></g></g><g class="errorbars"/><g class="lines"><path class="js-line" d="M0,295.29L9.01,203.54L18.02,188.31L27.03,175.4L36.04,181.05L45.05,169.76L54.05,167.34L63.06,188.68L72.07,175.96L81.08,193.45L90.09,192.3L99.1,169.82L108.11,188.34L117.12,174.32L126.13,180.03L135.14,170.38L144.14,187.32L153.15,198.32L162.16,182.54L171.17,205.48L180.18,172.08L189.19,197.02L198.2,181.6L207.21,175.72L216.22,183.39L225.23,178.4L234.23,175.01L243.24,178.28L252.25,168.86L261.26,170.77L270.27,148.98L279.28,159.9L288.29,168.3L297.3,163.66L306.31,176.24L315.32,166.03L324.32,162.98L333.33,153.49L342.34,128.78L351.35,137.94L360.36,131.22L369.37,136.56L378.38,123.83L387.39,127.59L396.4,133.29L405.41,132.69L414.41,132.93L423.42,132.44L432.43,134.11L441.44,118.69L450.45,121.59L459.46,110.6L468.47,85.53L477.48,121.16L486.49,92.99L504.5,71.01L513.51,63.14L522.52,93.64L531.53,94.93L540.54,53.81L549.55,48.31L558.56,59.33L567.57,39.58L576.58,32.38L585.59,36.48L594.59,28.92L603.6,32.31L612.61,65.58L621.62,37.18L630.63,22.83L639.64,19.5L648.65,21.92L657.66,21.62L666.67,20.41L675.68,20.92L684.68,25.41L693.69,27.11L702.7,26.39L711.71,28.11L720.72,43.6L729.73,29.76L738.74,41.38L747.75,40.19L756.76,26.74L765.77,44.99L774.77,44.96L783.78,45.81L801.8,45.75L810.81,37.82L819.82,45.53L828.83,45.87L837.84,46.56L846.85,44.69L855.86,44.53L864.86,45.23L873.87,43.43L882.88,45.11L900,45.13L900,47.44L882.88,47.47L873.87,59.65L864.86,47.54L855.86,50.63L846.85,50.62L837.84,58.77L828.83,51.83L819.82,52.8L810.81,77.05L801.8,52.55L792.79,52.58L783.78,47.61L774.77,58.26L765.77,56.44L756.76,106.89L747.75,67.5L738.74,96.09L729.73,105.45L720.72,86.31L711.71,116.88L702.7,115.79L693.69,120.13L684.68,132.28L675.68,139.05L657.66,130.82L648.65,130.87L639.64,138.58L630.63,135.62L621.62,149.73L612.61,157.99L603.6,140.53L594.59,129.56L576.58,128.31L567.57,130.23L558.56,147.23L549.55,145.82L540.54,161.31L531.53,168.58L522.52,181.24L513.51,163.14L504.5,167.77L495.5,168.89L486.49,172.76L477.48,191.65L468.47,184.11L459.46,180.77L450.45,190.92L441.44,189.45L432.43,184.57L423.42,188.69L414.41,193.19L405.41,196L396.4,193.12L387.39,208.95L378.38,197.64L369.37,200.18L360.36,213.38L351.35,214.33L342.34,215.89L333.33,191.69L324.32,190.52L315.32,194.7L306.31,194.55L297.3,197.78L288.29,187.43L279.28,203.54L270.27,188.76L261.26,192.54L252.25,196.92L243.24,200.24L234.23,195.86L225.23,205.05L216.22,238.25L207.21,198.03L198.2,219.92L189.19,214.17L180.18,212.19L171.17,211.33L162.16,211.52L153.15,215.63L144.14,211.68L135.14,228.66L126.13,216.24L117.12,224.76L108.11,197.66L99.1,210.97L90.09,226.63L81.08,220.61L72.07,208.46L63.06,219L54.05,216.87L45.05,216.42L36.04,225.87L27.03,213.3L18.02,233.05L9.01,230.59L0,317.35" style="vector-effect: none; fill: none; stroke: rgb(255, 161, 90); stroke-opacity: 1; stroke-width: 0px; opacity: 1;"/></g><g class="points"/><g class="text"/></g><g class="trace scatter trace1c36bd" style="stroke-miterlimit: 2; opacity: 1;"><g class="fills"/><g class="errorbars"/><g class="lines"><path class="js-line" d="M0,285.96L9.01,209.48L18.02,219.04L27.03,193.85L36.04,207.47L45.05,201.06L54.05,204.77L63.06,192.98L72.07,208.13L81.08,200.95L90.09,205.55L99.1,200.04L108.11,213.6L117.12,199.56L126.13,203.36L135.14,195.92L144.14,204.36L153.15,190.03L162.16,199.65L171.17,201.48L180.18,220.8L189.19,210.61L198.2,189.82L207.21,201.31L216.22,200.48L225.23,191.14L234.23,186.87L243.24,210.92L252.25,197.79L261.26,215.76L270.27,201.8L279.28,204.21L288.29,204.53L297.3,212.52L306.31,180.59L315.32,204.8L324.32,208.72L333.33,210.6L342.34,211.36L351.35,212.04L360.36,206.78L369.37,189.29L378.38,219.28L387.39,203.5L396.4,215.49L405.41,192.18L414.41,208.45L423.42,208.06L432.43,195.24L441.44,205.04L450.45,202.26L459.46,184.89L468.47,203.82L477.48,210.61L486.49,194.82L495.5,203.82L504.5,204.53L513.51,209.67L522.52,186.49L531.53,193.31L540.54,197.74L549.55,205.13L558.56,220.81L567.57,191.68L576.58,182.81L585.59,191.23L594.59,186.6L603.6,184.15L612.61,205.98L621.62,184.32L630.63,195.02L639.64,187.47L648.65,185.73L657.66,194.25L666.67,197.87L675.68,190.46L684.68,196.29L693.69,189.43L702.7,198.76L711.71,194.59L720.72,196.59L729.73,193.63L738.74,189.72L747.75,177.42L756.76,187.48L765.77,186.41L774.77,174.53L783.78,184.22L792.79,203L801.8,183.32L810.81,166.28L828.83,172.48L837.84,203.39L846.85,188.56L855.86,169.1L864.86,173.68L873.87,173.27L882.88,163.97L891.89,182.06L900,176.61" style="vector-effect: none; fill: none; stroke: rgb(42, 120, 214); stroke-opacity: 1; stroke-width: 2.5px; opacity: 1;"/></g><g class="points"/><g class="text"/></g><g class="trace scatter tracecf30b3" style="stroke-miterlimit: 2; opacity: 1;"><g class="fills"/><g class="errorbars"/><g class="lines"><path class="js-line" d="M0,308.13L9.01,199.39L18.02,198.13L27.03,197.37L36.04,206.85L45.05,205.07L54.05,197.07L72.07,199.54L81.08,198.29L90.09,198.04L99.1,194.37L108.11,196.88L117.12,194.25L126.13,191.69L135.14,192.88L144.14,197.97L153.15,190.24L162.16,202.86L171.17,199.17L180.18,191.61L189.19,194.14L198.2,187.91L207.21,185.13L216.22,190.37L225.23,187.79L234.23,160.77L243.24,153.1L252.25,142.78L261.26,137.71L270.27,142.83L279.28,138.92L288.29,134.9L297.3,147.99L306.31,123.71L315.32,133.75L324.32,126.22L333.33,101.06L342.34,93.29L351.35,91.73L360.36,92.75L369.37,88.6L378.38,93.48L387.39,90.78L396.4,90.95L405.41,85.85L414.41,85.77L423.42,80.03L432.43,87.17L441.44,87.18L450.45,84.72L459.46,77.36L468.47,72.33L477.48,72.18L486.49,71.86L495.5,68.93L504.5,57.23L513.51,58.63L522.52,59.31L531.53,56.36L540.54,55.2L549.55,61.54L558.56,56.53L567.57,56.59L576.58,60.31L585.59,59.07L594.59,61.53L603.6,57.73L612.61,55.27L621.62,54.33L630.63,58.23L639.64,57.23L648.65,56.85L657.66,50.91L666.67,57.14L675.68,48.71L684.68,48.46L693.69,47.27L702.7,51.03L711.71,49.37L720.72,50.93L729.73,48.48L738.74,52.52L747.75,48.44L756.76,48.45L765.77,53.29L774.77,47.94L783.78,50.24L792.79,51.84L801.8,46.51L810.81,46.38L819.82,47.6L828.83,46.21L837.84,46.32L846.85,46.24L855.86,48.1L864.86,46.18L873.87,54.37L882.88,49.49L891.89,46.19L900,46.25" style="vector-effect: none; fill: none; stroke: rgb(235, 104, 52); stroke-opacity: 1; stroke-width: 2.5px; opacity: 1;"/></g><g class="points"/><g class="text"/></g><g class="trace scatter tracec57f0a" style="stroke-miterlimit: 2; opacity: 1;"><g class="fills"/><g class="errorbars"/><g class="lines"><path class="js-line" d="M0,301.27L9.01,210.44L18.02,216.4L27.03,205.47L36.04,189.51L45.05,189.19L54.05,188.04L63.06,203.31L72.07,195.84L81.08,201.59L90.09,205.37L99.1,190.53L108.11,196.52L117.12,212.16L126.13,203.47L144.14,200.49L153.15,200.42L162.16,198.89L171.17,192.74L180.18,201.64L189.19,195.79L198.2,199.38L207.21,200.05L234.23,199.38L243.24,203.1L252.25,200.02L261.26,189.66L270.27,198.6L279.28,196.22L288.29,201.96L297.3,194.96L306.31,201.06L315.32,199.6L324.32,196.81L333.33,199.25L342.34,200.79L351.35,196.86L360.36,200.69L369.37,196.89L378.38,197.84L387.39,201.54L396.4,200.2L405.41,197.63L414.41,203.99L423.42,200.21L432.43,192.49L441.44,198.13L450.45,196.38L459.46,205.2L468.47,189.88L477.48,189.91L486.49,200.11L495.5,198.87L504.5,191.18L513.51,196.26L522.52,198.86L531.53,192.43L540.54,201.53L549.55,195.17L558.56,205.31L567.57,200.25L576.58,188.99L585.59,199.58L594.59,193.3L603.6,197.15L612.61,198.97L621.62,193.5L630.63,189.89L639.64,202.53L648.65,201.71L657.66,197.59L666.67,197.58L675.68,190.8L684.68,192.32L693.69,184.72L702.7,184.9L711.71,191.47L720.72,186.27L729.73,201.09L738.74,191.7L747.75,193.75L756.76,192.74L765.77,189.07L774.77,187.48L783.78,188.95L792.79,193.95L801.8,192.63L810.81,182.11L819.82,188.06L828.83,190.36L837.84,186.27L846.85,182.52L855.86,172.59L864.86,167.61L873.87,179.04L891.89,185.17L900,171.02" style="vector-effect: none; fill: none; stroke: rgb(27, 175, 122); stroke-opacity: 1; stroke-width: 2.5px; opacity: 1;"/></g><g class="points"/><g class="text"/></g><g class="trace scatter traceca45f5" style="stroke-miterlimit: 2; opacity: 1;"><g class="fills"/><g class="errorbars"/><g class="lines"><path class="js-line" d="M0,324.14L18.02,298.22L27.03,265.54L36.04,250.8L45.05,205.04L63.06,204.24L72.07,199.5L81.08,197.7L90.09,192.56L99.1,186.13L108.11,197.56L117.12,196.27L126.13,199.99L135.14,200.01L144.14,201.36L162.16,201.21L171.17,193.6L180.18,194.87L189.19,197.4L198.2,198.67L207.21,196.13L216.22,198.69L225.23,197.41L234.23,197.39L243.24,196.23L261.26,198.67L270.27,194.86L279.28,197.4L288.29,197.4L315.32,197.39L324.32,198.67L333.33,196.11L342.34,196.13L351.35,198.67L360.36,197.39L369.37,194.85L378.38,197.4L387.39,194.85L396.4,196.13L405.41,198.66L414.41,197.4L423.42,198.68L432.43,197.39L441.44,196.12L450.45,197.39L486.49,197.46L495.5,198.66L504.5,197.39L513.51,197.39L522.52,197.39L531.53,198.67L540.54,197.39L549.55,197.39L558.56,196.12L567.57,197.39L639.64,197.41L648.65,198.66L657.66,197.39L666.67,198.65L675.68,196.12L684.68,197.39L702.7,197.39L711.71,196.12L720.72,198.67L729.73,198.67L738.74,197.39L747.75,197.39L756.76,196.11L765.77,196.12L774.77,196.11L783.78,197.38L801.8,197.39L810.81,196.12L819.82,197.39L828.83,196.1L846.85,198.67L855.86,198.67L864.86,197.39L873.87,198.67L882.88,196.12L891.89,197.41L900,197.39" style="vector-effect: none; fill: none; stroke: rgb(237, 161, 0); stroke-opacity: 1; stroke-width: 2.5px; opacity: 1;"/></g><g class="points"/><g class="text"/></g><g class="trace scatter tracef66a42" style="stroke-miterlimit: 2; opacity: 1;"><g class="fills"/><g class="errorbars"/><g class="lines"><path class="js-line" d="M0,306.32L9.01,217.06L18.02,210.68L27.03,194.35L36.04,203.46L45.05,193.09L54.05,192.1L63.06,203.84L72.07,192.21L81.08,207.03L90.09,209.46L99.1,190.4L108.11,193L117.12,199.54L126.13,198.14L135.14,199.52L144.14,199.5L153.15,206.97L162.16,197.03L171.17,208.4L180.18,192.13L189.19,205.59L198.2,200.76L207.21,186.87L216.22,210.82L225.23,191.73L234.23,185.44L243.24,189.26L252.25,182.89L261.26,181.65L270.27,168.87L279.28,181.72L288.29,177.87L297.3,180.72L306.31,185.4L315.32,180.37L324.32,176.75L333.33,172.59L342.34,172.33L351.35,176.14L360.36,172.3L369.37,168.37L378.38,160.73L387.39,168.27L396.4,163.21L405.41,164.35L414.41,163.06L423.42,160.56L432.43,159.34L441.44,154.07L450.45,156.26L468.47,134.82L477.48,156.41L486.49,132.88L495.5,125.51L513.51,113.14L522.52,137.44L531.53,131.76L540.54,107.56L549.55,97.06L558.56,103.28L567.57,84.9L576.58,80.35L585.59,82.67L594.59,79.24L603.6,86.42L612.61,111.78L621.62,93.45L630.63,79.22L639.64,79.04L648.65,76.4L657.66,76.22L666.67,77.51L675.68,79.99L684.68,78.85L693.69,73.62L702.7,71.09L711.71,72.5L720.72,64.95L729.73,67.6L738.74,68.73L747.75,53.84L756.76,66.82L765.77,50.72L774.77,51.61L783.78,46.71L792.79,49.23L801.8,49.15L810.81,57.43L819.82,49.17L828.83,48.85L837.84,52.67L846.85,47.66L855.86,47.58L864.86,46.39L873.87,51.54L882.88,46.29L900,46.29" style="vector-effect: none; fill: none; stroke: rgb(74, 58, 167); stroke-opacity: 1; stroke-width: 2.5px; opacity: 1;"/></g><g class="points"/><g class="text"/></g></g></g></g><g class="zerolinelayer-above"/><path class="xlines-above crisp" d="M0,0" style="fill: none;"/><path class="ylines-above crisp" d="M0,0" style="fill: none;"/><g class="overlines-above"/><g class="xaxislayer-above"><g class="xtick"><text text-anchor="middle" x="0" y="513" transform="translate(70,0)" style="font-family: 'Open Sans', verdana, arial, sans-serif; font-size: 12px; fill: rgb(42, 63, 95); fill-opacity: 1; white-space: pre;">0</text></g><g class="xtick"><text text-anchor="middle" x="0" y="513" style="font-family: 'Open Sans', verdana, arial, sans-serif; font-size: 12px; fill: rgb(42, 63, 95); fill-opacity: 1; white-space: pre;" transform="translate(160.09,0)">100</text></g><g class="xtick"><text text-anchor="middle" x="0" y="513" style="font-family: 'Open Sans', verdana, arial, sans-serif; font-size: 12px; fill: rgb(42, 63, 95); fill-opacity: 1; white-space: pre;" transform="translate(250.18,0)">200</text></g><g class="xtick"><text text-anchor="middle" x="0" y="513" style="font-family: 'Open Sans', verdana, arial, sans-serif; font-size: 12px; fill: rgb(42, 63, 95); fill-opacity: 1; white-space: pre;" transform="translate(340.27,0)">300</text></g><g class="xtick"><text text-anchor="middle" x="0" y="513" style="font-family: 'Open Sans', verdana, arial, sans-serif; font-size: 12px; fill: rgb(42, 63, 95); fill-opacity: 1; white-space: pre;" transform="translate(430.36,0)">400</text></g><g class="xtick"><text text-anchor="middle" x="0" y="513" style="font-family: 'Open Sans', verdana, arial, sans-serif; font-size: 12px; fill: rgb(42, 63, 95); fill-opacity: 1; white-space: pre;" transform="translate(520.45,0)">500</text></g><g class="xtick"><text text-anchor="middle" x="0" y="513" style="font-family: 'Open Sans', verdana, arial, sans-serif; font-size: 12px; fill: rgb(42, 63, 95); fill-opacity: 1; white-space: pre;" transform="translate(610.54,0)">600</text></g><g class="xtick"><text text-anchor="middle" x="0" y="513" style="font-family: 'Open Sans', verdana, arial, sans-serif; font-size: 12px; fill: rgb(42, 63, 95); fill-opacity: 1; white-space: pre;" transform="translate(700.63,0)">700</text></g><g class="xtick"><text text-anchor="middle" x="0" y="513" style="font-family: 'Open Sans', verdana, arial, sans-serif; font-size: 12px; fill: rgb(42, 63, 95); fill-opacity: 1; white-space: pre;" transform="translate(790.72,0)">800</text></g><g class="xtick"><text text-anchor="middle" x="0" y="513" style="font-family: 'Open Sans', verdana, arial, sans-serif; font-size: 12px; fill: rgb(42, 63, 95); fill-opacity: 1; white-space: pre;" transform="translate(880.81,0)">900</text></g></g><g class="yaxislayer-above"><g class="ytick"><text text-anchor="end" x="69" y="4.199999999999999" transform="translate(0,466.65)" style="font-family: 'Open Sans', verdana, arial, sans-serif; font-size: 12px; fill: rgb(42, 63, 95); fill-opacity: 1; white-space: pre;">0</text></g><g class="ytick"><text text-anchor="end" x="69" y="4.199999999999999" style="font-family: 'Open Sans', verdana, arial, sans-serif; font-size: 12px; fill: rgb(42, 63, 95); fill-opacity: 1; white-space: pre;" transform="translate(0,401.87)">0.2</text></g><g class="ytick"><text text-anchor="end" x="69" y="4.199999999999999" style="font-family: 'Open Sans', verdana, arial, sans-serif; font-size: 12px; fill: rgb(42, 63, 95); fill-opacity: 1; white-space: pre;" transform="translate(0,337.08000000000004)">0.4</text></g><g class="ytick"><text text-anchor="end" x="69" y="4.199999999999999" style="font-family: 'Open Sans', verdana, arial, sans-serif; font-size: 12px; fill: rgb(42, 63, 95); fill-opacity: 1; white-space: pre;" transform="translate(0,272.28999999999996)">0.6</text></g><g class="ytick"><text text-anchor="end" x="69" y="4.199999999999999" style="font-family: 'Open Sans', verdana, arial, sans-serif; font-size: 12px; fill: rgb(42, 63, 95); fill-opacity: 1; white-space: pre;" transform="translate(0,207.5)">0.8</text></g><g class="ytick"><text text-anchor="end" x="69" y="4.199999999999999" style="font-family: 'Open Sans', verdana, arial, sans-serif; font-size: 12px; fill: rgb(42, 63, 95); fill-opacity: 1; white-space: pre;" transform="translate(0,142.71)">1</text></g></g><g class="overaxes-above"/></g></g><g class="polarlayer"/><g class="smithlayer"/><g class="ternarylayer"/><g class="geolayer"/><g class="funnelarealayer"/><g class="pielayer"/><g class="iciclelayer"/><g class="treemaplayer"/><g class="sunburstlayer"/><g class="glimages"/><defs id="topdefs-ea7431"><g class="clips"/><clipPath id="legendea7431"><rect width="591" height="29" x="0" y="0"/></clipPath></defs><g class="layer-above"><g class="imagelayer"/><g class="shapelayer"/></g><g class="infolayer"><g class="legend" pointer-events="all" transform="translate(70,81)"><rect class="bg" shape-rendering="crispEdges" style="stroke: rgb(68, 68, 68); stroke-opacity: 1; fill: rgb(255, 255, 255); fill-opacity: 1; stroke-width: 0px;" width="591" height="29" x="0" y="0"/><g class="scrollbox" transform="" clip-path="url(#legendea7431)"><g class="groups" transform=""><g class="traces" transform="translate(0,14.5)" style="opacity: 1;"><text class="legendtext" text-anchor="start" x="40" y="4.680000000000001" style="font-family: 'Open Sans', verdana, arial, sans-serif; font-size: 12px; fill: rgb(42, 63, 95); fill-opacity: 1; white-space: pre;">MLP</text><g class="layers" style="opacity: 1;"><g class="legendfill"/><g class="legendlines"><path class="js-line" d="M5,0h30" style="fill: none; stroke: rgb(42, 120, 214); stroke-opacity: 1; stroke-width: 2.5px;"/></g><g class="legendsymbols"><g class="legendpoints"/></g></g><rect class="legendtoggle" x="0" y="-9.5" width="66.53125" height="19" style="fill: rgb(0, 0, 0); fill-opacity: 0;"/></g></g><g class="groups" transform="translate(69.03125,0)"><g class="traces" transform="translate(0,14.5)" style="opacity: 1;"><text class="legendtext" text-anchor="start" x="40" y="4.680000000000001" style="font-family: 'Open Sans', verdana, arial, sans-serif; font-size: 12px; fill: rgb(42, 63, 95); fill-opacity: 1; white-space: pre;">GRU (full BPTT)</text><g class="layers" style="opacity: 1;"><g class="legendfill"/><g class="legendlines"><path class="js-line" d="M5,0h30" style="fill: none; stroke: rgb(235, 104, 52); stroke-opacity: 1; stroke-width: 2.5px;"/></g><g class="legendsymbols"><g class="legendpoints"/></g></g><rect class="legendtoggle" x="0" y="-9.5" width="136.515625" height="19" style="fill: rgb(0, 0, 0); fill-opacity: 0;"/></g></g><g class="groups" transform="translate(208.046875,0)"><g class="traces" transform="translate(0,14.5)" style="opacity: 1;"><text class="legendtext" text-anchor="start" x="40" y="4.680000000000001" style="font-family: 'Open Sans', verdana, arial, sans-serif; font-size: 12px; fill: rgb(42, 63, 95); fill-opacity: 1; white-space: pre;">GRU (tbptt 1)</text><g class="layers" style="opacity: 1;"><g class="legendfill"/><g class="legendlines"><path class="js-line" d="M5,0h30" style="fill: none; stroke: rgb(27, 175, 122); stroke-opacity: 1; stroke-width: 2.5px;"/></g><g class="legendsymbols"><g class="legendpoints"/></g></g><rect class="legendtoggle" x="0" y="-9.5" width="125.046875" height="19" style="fill: rgb(0, 0, 0); fill-opacity: 0;"/></g></g><g class="groups" transform="translate(335.59375,0)"><g class="traces" transform="translate(0,14.5)" style="opacity: 1;"><text class="legendtext" text-anchor="start" x="40" y="4.680000000000001" style="font-family: 'Open Sans', verdana, arial, sans-serif; font-size: 12px; fill: rgb(42, 63, 95); fill-opacity: 1; white-space: pre;">GRU (tbptt 4)</text><g class="layers" style="opacity: 1;"><g class="legendfill"/><g class="legendlines"><path class="js-line" d="M5,0h30" style="fill: none; stroke: rgb(237, 161, 0); stroke-opacity: 1; stroke-width: 2.5px;"/></g><g class="legendsymbols"><g class="legendpoints"/></g></g><rect class="legendtoggle" x="0" y="-9.5" width="125.046875" height="19" style="fill: rgb(0, 0, 0); fill-opacity: 0;"/></g></g><g class="groups" transform="translate(463.140625,0)"><g class="traces" transform="translate(0,14.5)" style="opacity: 1;"><text class="legendtext" text-anchor="start" x="40" y="4.680000000000001" style="font-family: 'Open Sans', verdana, arial, sans-serif; font-size: 12px; fill: rgb(42, 63, 95); fill-opacity: 1; white-space: pre;">GRU (tbptt 8)</text><g class="layers" style="opacity: 1;"><g class="legendfill"/><g class="legendlines"><path class="js-line" d="M5,0h30" style="fill: none; stroke: rgb(74, 58, 167); stroke-opacity: 1; stroke-width: 2.5px;"/></g><g class="legendsymbols"><g class="legendpoints"/></g></g><rect class="legendtoggle" x="0" y="-9.5" width="125.046875" height="19" style="fill: rgb(0, 0, 0); fill-opacity: 0;"/></g></g></g><rect class="scrollbar" rx="20" ry="3" width="0" height="0" style="fill: rgb(128, 139, 164); fill-opacity: 1;" x="0" y="0"/></g><g class="g-gtitle"><text class="gtitle" x="50" y="55" text-anchor="start" dy="0em" style="opacity: 1; font-family: 'Open Sans', verdana, arial, sans-serif; font-size: 17px; fill: rgb(42, 63, 95); fill-opacity: 1; white-space: pre;"><tspan class="line" dy="0em" x="50" y="55">return_mean  --  mean over seeds and +- 1 std</tspan><tspan class="line" dy="1.3em" x="50" y="55">​<tspan style="font-size:70%" dy="0.3em">MiniGrid-MemoryS17Random-v0  --  winning trial of each study  --  5 seed(s), sampled eval</tspan><tspan dy="-0.21em">​</tspan></tspan></text></g><g class="g-xtitle"><text class="xtitle" x="520" y="540.3" text-anchor="middle" style="opacity: 1; font-family: 'Open Sans', verdana, arial, sans-serif; font-size: 14px; fill: rgb(42, 63, 95); fill-opacity: 1; white-space: pre;">iteration</text></g><g class="g-ytitle"><text class="ytitle" transform="rotate(-90,29.975,305)" x="29.975" y="305" text-anchor="middle" style="opacity: 1; font-family: 'Open Sans', verdana, arial, sans-serif; font-size: 14px; fill: rgb(42, 63, 95); fill-opacity: 1; white-space: pre;">return_mean</text></g></g></svg>